%TF.GenerationSoftware,KiCad,Pcbnew,9.0.1*%
%TF.CreationDate,2025-07-26T23:55:01-07:00*%
%TF.ProjectId,capstone_paul_ngo,63617073-746f-46e6-955f-7061756c5f6e,rev?*%
%TF.SameCoordinates,Original*%
%TF.FileFunction,Drillmap*%
%TF.FilePolarity,Positive*%
%FSLAX45Y45*%
G04 Gerber Fmt 4.5, Leading zero omitted, Abs format (unit mm)*
G04 Created by KiCad (PCBNEW 9.0.1) date 2025-07-26 23:55:01*
%MOMM*%
%LPD*%
G01*
G04 APERTURE LIST*
%ADD10C,0.050000*%
%ADD11C,0.200000*%
G04 APERTURE END LIST*
D10*
X12800000Y-6400000D02*
X12800000Y-13000000D01*
X19500000Y-6100000D02*
X13100000Y-6100000D01*
X13100000Y-13300000D02*
G75*
G02*
X12800000Y-13000000I0J300000D01*
G01*
X13100000Y-13300000D02*
X19500000Y-13300000D01*
X12800000Y-6400000D02*
G75*
G02*
X13100000Y-6100000I300000J0D01*
G01*
X19500000Y-6100000D02*
G75*
G02*
X19800000Y-6400000I0J-300000D01*
G01*
X19800000Y-13000000D02*
X19800000Y-6400000D01*
X19800000Y-13000000D02*
G75*
G02*
X19500000Y-13300000I-300000J0D01*
G01*
D11*
X13058277Y-13613984D02*
X13058277Y-13413984D01*
X13058277Y-13413984D02*
X13105896Y-13413984D01*
X13105896Y-13413984D02*
X13134467Y-13423508D01*
X13134467Y-13423508D02*
X13153515Y-13442555D01*
X13153515Y-13442555D02*
X13163039Y-13461603D01*
X13163039Y-13461603D02*
X13172562Y-13499698D01*
X13172562Y-13499698D02*
X13172562Y-13528269D01*
X13172562Y-13528269D02*
X13163039Y-13566365D01*
X13163039Y-13566365D02*
X13153515Y-13585412D01*
X13153515Y-13585412D02*
X13134467Y-13604460D01*
X13134467Y-13604460D02*
X13105896Y-13613984D01*
X13105896Y-13613984D02*
X13058277Y-13613984D01*
X13258277Y-13613984D02*
X13258277Y-13480650D01*
X13258277Y-13518746D02*
X13267801Y-13499698D01*
X13267801Y-13499698D02*
X13277324Y-13490174D01*
X13277324Y-13490174D02*
X13296372Y-13480650D01*
X13296372Y-13480650D02*
X13315420Y-13480650D01*
X13382086Y-13613984D02*
X13382086Y-13480650D01*
X13382086Y-13413984D02*
X13372562Y-13423508D01*
X13372562Y-13423508D02*
X13382086Y-13433031D01*
X13382086Y-13433031D02*
X13391610Y-13423508D01*
X13391610Y-13423508D02*
X13382086Y-13413984D01*
X13382086Y-13413984D02*
X13382086Y-13433031D01*
X13505896Y-13613984D02*
X13486848Y-13604460D01*
X13486848Y-13604460D02*
X13477324Y-13585412D01*
X13477324Y-13585412D02*
X13477324Y-13413984D01*
X13610658Y-13613984D02*
X13591610Y-13604460D01*
X13591610Y-13604460D02*
X13582086Y-13585412D01*
X13582086Y-13585412D02*
X13582086Y-13413984D01*
X13839229Y-13613984D02*
X13839229Y-13413984D01*
X13839229Y-13413984D02*
X13905896Y-13556841D01*
X13905896Y-13556841D02*
X13972562Y-13413984D01*
X13972562Y-13413984D02*
X13972562Y-13613984D01*
X14153515Y-13613984D02*
X14153515Y-13509222D01*
X14153515Y-13509222D02*
X14143991Y-13490174D01*
X14143991Y-13490174D02*
X14124943Y-13480650D01*
X14124943Y-13480650D02*
X14086848Y-13480650D01*
X14086848Y-13480650D02*
X14067801Y-13490174D01*
X14153515Y-13604460D02*
X14134467Y-13613984D01*
X14134467Y-13613984D02*
X14086848Y-13613984D01*
X14086848Y-13613984D02*
X14067801Y-13604460D01*
X14067801Y-13604460D02*
X14058277Y-13585412D01*
X14058277Y-13585412D02*
X14058277Y-13566365D01*
X14058277Y-13566365D02*
X14067801Y-13547317D01*
X14067801Y-13547317D02*
X14086848Y-13537793D01*
X14086848Y-13537793D02*
X14134467Y-13537793D01*
X14134467Y-13537793D02*
X14153515Y-13528269D01*
X14248753Y-13480650D02*
X14248753Y-13680650D01*
X14248753Y-13490174D02*
X14267801Y-13480650D01*
X14267801Y-13480650D02*
X14305896Y-13480650D01*
X14305896Y-13480650D02*
X14324943Y-13490174D01*
X14324943Y-13490174D02*
X14334467Y-13499698D01*
X14334467Y-13499698D02*
X14343991Y-13518746D01*
X14343991Y-13518746D02*
X14343991Y-13575888D01*
X14343991Y-13575888D02*
X14334467Y-13594936D01*
X14334467Y-13594936D02*
X14324943Y-13604460D01*
X14324943Y-13604460D02*
X14305896Y-13613984D01*
X14305896Y-13613984D02*
X14267801Y-13613984D01*
X14267801Y-13613984D02*
X14248753Y-13604460D01*
X14429705Y-13594936D02*
X14439229Y-13604460D01*
X14439229Y-13604460D02*
X14429705Y-13613984D01*
X14429705Y-13613984D02*
X14420182Y-13604460D01*
X14420182Y-13604460D02*
X14429705Y-13594936D01*
X14429705Y-13594936D02*
X14429705Y-13613984D01*
X14429705Y-13490174D02*
X14439229Y-13499698D01*
X14439229Y-13499698D02*
X14429705Y-13509222D01*
X14429705Y-13509222D02*
X14420182Y-13499698D01*
X14420182Y-13499698D02*
X14429705Y-13490174D01*
X14429705Y-13490174D02*
X14429705Y-13509222D01*
M02*
