M48
; DRILL file {KiCad 9.0.1} date 2025-07-26T23:55:01-0700
; FORMAT={-:-/ absolute / metric / decimal}
; #@! TF.CreationDate,2025-07-26T23:55:01-07:00
; #@! TF.GenerationSoftware,Kicad,Pcbnew,9.0.1
; #@! TF.FileFunction,Plated,1,2,PTH
FMAT,2
METRIC
; #@! TA.AperFunction,Plated,PTH,ComponentDrill
T1C0.800
; #@! TA.AperFunction,Plated,PTH,ComponentDrill
T2C0.900
; #@! TA.AperFunction,Plated,PTH,ComponentDrill
T3C1.000
%
G90
G05
T1
X164.0Y-91.0
X164.0Y-98.62
X171.0Y-95.0
X171.0Y-102.62
T2
X162.46Y-83.0
X165.0Y-83.0
X170.46Y-83.0
X173.0Y-83.0
T3
X140.38Y-92.97
X140.38Y-95.51
X140.38Y-98.05
X140.38Y-100.59
X140.38Y-103.13
X140.38Y-105.67
X140.38Y-108.21
X140.38Y-110.75
X140.38Y-113.29
X140.38Y-115.83
X140.38Y-118.37
X140.38Y-120.91
X155.62Y-92.97
X155.62Y-95.51
X155.62Y-98.05
X155.62Y-100.59
X155.62Y-103.13
X155.62Y-105.67
X155.62Y-108.21
X155.62Y-110.75
X155.62Y-113.29
X155.62Y-115.83
X155.62Y-118.37
X155.62Y-120.91
X173.38Y-64.0
X175.92Y-64.0
X178.46Y-64.0
X181.0Y-64.0
X183.54Y-64.0
M30
