G04 #@! TF.GenerationSoftware,KiCad,Pcbnew,9.0.1*
G04 #@! TF.CreationDate,2025-07-26T23:54:48-07:00*
G04 #@! TF.ProjectId,capstone_paul_ngo,63617073-746f-46e6-955f-7061756c5f6e,rev?*
G04 #@! TF.SameCoordinates,Original*
G04 #@! TF.FileFunction,Copper,L1,Top*
G04 #@! TF.FilePolarity,Positive*
%FSLAX46Y46*%
G04 Gerber Fmt 4.6, Leading zero omitted, Abs format (unit mm)*
G04 Created by KiCad (PCBNEW 9.0.1) date 2025-07-26 23:54:48*
%MOMM*%
%LPD*%
G01*
G04 APERTURE LIST*
G04 #@! TA.AperFunction,ComponentPad*
%ADD10R,1.700000X1.700000*%
G04 #@! TD*
G04 #@! TA.AperFunction,ComponentPad*
%ADD11O,1.700000X1.700000*%
G04 #@! TD*
G04 #@! TA.AperFunction,ComponentPad*
%ADD12R,1.800000X1.800000*%
G04 #@! TD*
G04 #@! TA.AperFunction,ComponentPad*
%ADD13C,1.800000*%
G04 #@! TD*
G04 #@! TA.AperFunction,ComponentPad*
%ADD14C,1.600000*%
G04 #@! TD*
G04 #@! TA.AperFunction,ComponentPad*
%ADD15O,1.600000X1.600000*%
G04 #@! TD*
G04 #@! TA.AperFunction,Conductor*
%ADD16C,0.762000*%
G04 #@! TD*
G04 #@! TA.AperFunction,Conductor*
%ADD17C,1.016000*%
G04 #@! TD*
G04 APERTURE END LIST*
D10*
X173380000Y-64000000D03*
D11*
X175920000Y-64000000D03*
X178460000Y-64000000D03*
X181000000Y-64000000D03*
X183540000Y-64000000D03*
D12*
X170460000Y-83000000D03*
D13*
X173000000Y-83000000D03*
D14*
X171000000Y-102620000D03*
D15*
X171000000Y-95000000D03*
D12*
X162460000Y-83000000D03*
D13*
X165000000Y-83000000D03*
D10*
X140380000Y-92970000D03*
D11*
X140380000Y-95510000D03*
X140380000Y-98050000D03*
X140380000Y-100590000D03*
X140380000Y-103130000D03*
X140380000Y-105670000D03*
X140380000Y-108210000D03*
X140380000Y-110750000D03*
X140380000Y-113290000D03*
X140380000Y-115830000D03*
X140380000Y-118370000D03*
X140380000Y-120910000D03*
X155620000Y-120910000D03*
X155620000Y-118370000D03*
X155620000Y-115830000D03*
X155620000Y-113290000D03*
X155620000Y-110750000D03*
X155620000Y-108210000D03*
X155620000Y-105670000D03*
X155620000Y-103130000D03*
X155620000Y-100590000D03*
X155620000Y-98050000D03*
X155620000Y-95510000D03*
X155620000Y-92970000D03*
D14*
X164000000Y-98620000D03*
D15*
X164000000Y-91000000D03*
D16*
X173000000Y-93000000D02*
X173000000Y-83000000D01*
X171000000Y-95000000D02*
X173000000Y-93000000D01*
X164000000Y-91000000D02*
X164000000Y-84000000D01*
X164000000Y-84000000D02*
X165000000Y-83000000D01*
X183540000Y-66555865D02*
X173095865Y-77000000D01*
X183540000Y-64000000D02*
X183540000Y-66555865D01*
X152000000Y-77000000D02*
X146000000Y-83000000D01*
X173095865Y-77000000D02*
X152000000Y-77000000D01*
X146000000Y-83000000D02*
X146000000Y-94970000D01*
X146000000Y-94970000D02*
X140380000Y-100590000D01*
X133000000Y-92000000D02*
X136510000Y-95510000D01*
X136510000Y-95510000D02*
X140380000Y-95510000D01*
X178460000Y-65202081D02*
X172662081Y-71000000D01*
X133000000Y-74000000D02*
X133000000Y-92000000D01*
X136000000Y-71000000D02*
X133000000Y-74000000D01*
X178460000Y-64000000D02*
X178460000Y-65202081D01*
X172662081Y-71000000D02*
X136000000Y-71000000D01*
X172202081Y-74000000D02*
X147000000Y-74000000D01*
X147000000Y-74000000D02*
X140380000Y-80620000D01*
X181000000Y-65202081D02*
X172202081Y-74000000D01*
X181000000Y-64000000D02*
X181000000Y-65202081D01*
X140380000Y-80620000D02*
X140380000Y-92970000D01*
D17*
X175920000Y-65202081D02*
X173122081Y-68000000D01*
X130000000Y-111000000D02*
X132290000Y-113290000D01*
X130000000Y-71000000D02*
X130000000Y-111000000D01*
X173122081Y-68000000D02*
X133000000Y-68000000D01*
X133000000Y-68000000D02*
X130000000Y-71000000D01*
X132290000Y-113290000D02*
X140380000Y-113290000D01*
X175920000Y-64000000D02*
X175920000Y-65202081D01*
D16*
X161210000Y-102620000D02*
X171000000Y-102620000D01*
X155620000Y-108210000D02*
X161210000Y-102620000D01*
X160130000Y-98620000D02*
X164000000Y-98620000D01*
X155620000Y-103130000D02*
X160130000Y-98620000D01*
G04 #@! TA.AperFunction,Conductor*
G36*
X140630000Y-120476988D02*
G01*
X140572993Y-120444075D01*
X140445826Y-120410000D01*
X140314174Y-120410000D01*
X140187007Y-120444075D01*
X140130000Y-120476988D01*
X140130000Y-118803012D01*
X140187007Y-118835925D01*
X140314174Y-118870000D01*
X140445826Y-118870000D01*
X140572993Y-118835925D01*
X140630000Y-118803012D01*
X140630000Y-120476988D01*
G37*
G04 #@! TD.AperFunction*
G04 #@! TA.AperFunction,Conductor*
G36*
X155870000Y-120476988D02*
G01*
X155812993Y-120444075D01*
X155685826Y-120410000D01*
X155554174Y-120410000D01*
X155427007Y-120444075D01*
X155370000Y-120476988D01*
X155370000Y-118803012D01*
X155427007Y-118835925D01*
X155554174Y-118870000D01*
X155685826Y-118870000D01*
X155812993Y-118835925D01*
X155870000Y-118803012D01*
X155870000Y-120476988D01*
G37*
G04 #@! TD.AperFunction*
G04 #@! TA.AperFunction,Conductor*
G36*
X195003736Y-61500726D02*
G01*
X195293796Y-61518271D01*
X195308659Y-61520076D01*
X195590798Y-61571780D01*
X195605335Y-61575363D01*
X195879172Y-61660695D01*
X195893163Y-61666000D01*
X196154743Y-61783727D01*
X196167989Y-61790680D01*
X196413465Y-61939075D01*
X196425776Y-61947573D01*
X196651573Y-62124473D01*
X196662781Y-62134403D01*
X196865596Y-62337218D01*
X196875526Y-62348426D01*
X196995481Y-62501538D01*
X197052422Y-62574217D01*
X197060926Y-62586537D01*
X197119091Y-62682753D01*
X197209316Y-62832004D01*
X197216275Y-62845263D01*
X197333997Y-63106831D01*
X197339306Y-63120832D01*
X197424635Y-63394663D01*
X197428219Y-63409201D01*
X197479923Y-63691340D01*
X197481728Y-63706205D01*
X197499274Y-63996263D01*
X197499500Y-64003750D01*
X197499500Y-129996249D01*
X197499274Y-130003736D01*
X197481728Y-130293794D01*
X197479923Y-130308659D01*
X197428219Y-130590798D01*
X197424635Y-130605336D01*
X197339306Y-130879167D01*
X197333997Y-130893168D01*
X197216275Y-131154736D01*
X197209316Y-131167995D01*
X197060928Y-131413459D01*
X197052422Y-131425782D01*
X196875526Y-131651573D01*
X196865596Y-131662781D01*
X196662781Y-131865596D01*
X196651573Y-131875526D01*
X196425782Y-132052422D01*
X196413459Y-132060928D01*
X196167995Y-132209316D01*
X196154736Y-132216275D01*
X195893168Y-132333997D01*
X195879167Y-132339306D01*
X195605336Y-132424635D01*
X195590798Y-132428219D01*
X195308659Y-132479923D01*
X195293794Y-132481728D01*
X195003736Y-132499274D01*
X194996249Y-132499500D01*
X131003751Y-132499500D01*
X130996264Y-132499274D01*
X130706205Y-132481728D01*
X130691340Y-132479923D01*
X130409201Y-132428219D01*
X130394663Y-132424635D01*
X130120832Y-132339306D01*
X130106831Y-132333997D01*
X129845263Y-132216275D01*
X129832004Y-132209316D01*
X129586540Y-132060928D01*
X129574217Y-132052422D01*
X129348426Y-131875526D01*
X129337218Y-131865596D01*
X129134403Y-131662781D01*
X129124473Y-131651573D01*
X128947573Y-131425776D01*
X128939075Y-131413465D01*
X128790680Y-131167989D01*
X128783727Y-131154743D01*
X128666000Y-130893163D01*
X128660693Y-130879167D01*
X128575364Y-130605336D01*
X128571780Y-130590798D01*
X128520076Y-130308659D01*
X128518271Y-130293794D01*
X128500726Y-130003736D01*
X128500500Y-129996249D01*
X128500500Y-70900666D01*
X128991500Y-70900666D01*
X128991500Y-111099332D01*
X129016281Y-111223914D01*
X129030253Y-111294161D01*
X129030255Y-111294166D01*
X129106277Y-111477701D01*
X129106282Y-111477710D01*
X129216646Y-111642880D01*
X129216649Y-111642884D01*
X131506647Y-113932881D01*
X131647119Y-114073353D01*
X131647120Y-114073354D01*
X131812289Y-114183717D01*
X131812295Y-114183720D01*
X131812296Y-114183721D01*
X131995831Y-114259744D01*
X132190666Y-114298499D01*
X132190670Y-114298500D01*
X132190671Y-114298500D01*
X139430182Y-114298500D01*
X139449858Y-114304277D01*
X139470345Y-114305185D01*
X139492967Y-114316936D01*
X139497221Y-114318185D01*
X139501770Y-114321252D01*
X139502444Y-114321729D01*
X139672184Y-114445051D01*
X139688923Y-114453580D01*
X139696238Y-114458752D01*
X139712591Y-114479404D01*
X139731742Y-114497491D01*
X139733938Y-114506362D01*
X139739613Y-114513528D01*
X139742204Y-114539743D01*
X139748536Y-114565312D01*
X139745587Y-114573963D01*
X139746487Y-114583059D01*
X139734495Y-114606511D01*
X139725998Y-114631447D01*
X139718364Y-114638061D01*
X139714679Y-114645269D01*
X139700577Y-114653473D01*
X139680946Y-114670484D01*
X139672182Y-114674949D01*
X139500213Y-114799890D01*
X139349890Y-114950213D01*
X139224951Y-115122179D01*
X139128444Y-115311585D01*
X139062753Y-115513760D01*
X139029500Y-115723713D01*
X139029500Y-115936286D01*
X139062753Y-116146239D01*
X139128444Y-116348414D01*
X139224951Y-116537820D01*
X139349890Y-116709786D01*
X139500213Y-116860109D01*
X139672179Y-116985048D01*
X139672181Y-116985049D01*
X139672184Y-116985051D01*
X139681493Y-116989794D01*
X139732290Y-117037766D01*
X139749087Y-117105587D01*
X139726552Y-117171722D01*
X139681502Y-117210762D01*
X139672443Y-117215378D01*
X139500540Y-117340272D01*
X139500535Y-117340276D01*
X139350276Y-117490535D01*
X139350272Y-117490540D01*
X139225379Y-117662442D01*
X139128904Y-117851782D01*
X139063242Y-118053870D01*
X139063242Y-118053873D01*
X139052769Y-118120000D01*
X139946988Y-118120000D01*
X139914075Y-118177007D01*
X139880000Y-118304174D01*
X139880000Y-118435826D01*
X139914075Y-118562993D01*
X139946988Y-118620000D01*
X139052769Y-118620000D01*
X139063242Y-118686126D01*
X139063242Y-118686129D01*
X139128904Y-118888217D01*
X139225379Y-119077557D01*
X139350272Y-119249459D01*
X139350276Y-119249464D01*
X139500535Y-119399723D01*
X139500540Y-119399727D01*
X139672444Y-119524622D01*
X139682048Y-119529516D01*
X139732844Y-119577491D01*
X139749638Y-119645312D01*
X139727100Y-119711447D01*
X139682048Y-119750484D01*
X139672444Y-119755377D01*
X139500540Y-119880272D01*
X139500535Y-119880276D01*
X139350276Y-120030535D01*
X139350272Y-120030540D01*
X139225379Y-120202442D01*
X139128904Y-120391782D01*
X139063242Y-120593870D01*
X139063242Y-120593873D01*
X139052769Y-120660000D01*
X139946988Y-120660000D01*
X139914075Y-120717007D01*
X139880000Y-120844174D01*
X139880000Y-120975826D01*
X139914075Y-121102993D01*
X139946988Y-121160000D01*
X139052769Y-121160000D01*
X139063242Y-121226126D01*
X139063242Y-121226129D01*
X139128904Y-121428217D01*
X139225379Y-121617557D01*
X139350272Y-121789459D01*
X139350276Y-121789464D01*
X139500535Y-121939723D01*
X139500540Y-121939727D01*
X139672442Y-122064620D01*
X139861782Y-122161095D01*
X140063871Y-122226757D01*
X140130000Y-122237231D01*
X140130000Y-121343012D01*
X140187007Y-121375925D01*
X140314174Y-121410000D01*
X140445826Y-121410000D01*
X140572993Y-121375925D01*
X140630000Y-121343012D01*
X140630000Y-122237230D01*
X140696126Y-122226757D01*
X140696129Y-122226757D01*
X140898217Y-122161095D01*
X141087557Y-122064620D01*
X141259459Y-121939727D01*
X141259464Y-121939723D01*
X141409723Y-121789464D01*
X141409727Y-121789459D01*
X141534620Y-121617557D01*
X141631095Y-121428217D01*
X141696757Y-121226129D01*
X141696757Y-121226126D01*
X141707231Y-121160000D01*
X140813012Y-121160000D01*
X140845925Y-121102993D01*
X140880000Y-120975826D01*
X140880000Y-120844174D01*
X140845925Y-120717007D01*
X140813012Y-120660000D01*
X141707231Y-120660000D01*
X141696757Y-120593873D01*
X141696757Y-120593870D01*
X141631095Y-120391782D01*
X141534620Y-120202442D01*
X141409727Y-120030540D01*
X141409723Y-120030535D01*
X141259464Y-119880276D01*
X141259459Y-119880272D01*
X141087558Y-119755379D01*
X141077954Y-119750486D01*
X141027157Y-119702512D01*
X141010361Y-119634692D01*
X141032897Y-119568556D01*
X141077954Y-119529514D01*
X141087558Y-119524620D01*
X141259459Y-119399727D01*
X141259464Y-119399723D01*
X141409723Y-119249464D01*
X141409727Y-119249459D01*
X141534620Y-119077557D01*
X141631095Y-118888217D01*
X141696757Y-118686129D01*
X141696757Y-118686126D01*
X141707231Y-118620000D01*
X140813012Y-118620000D01*
X140845925Y-118562993D01*
X140880000Y-118435826D01*
X140880000Y-118304174D01*
X140845925Y-118177007D01*
X140813012Y-118120000D01*
X141707231Y-118120000D01*
X141696757Y-118053873D01*
X141696757Y-118053870D01*
X141631095Y-117851782D01*
X141534620Y-117662442D01*
X141409727Y-117490540D01*
X141409723Y-117490535D01*
X141259464Y-117340276D01*
X141259459Y-117340272D01*
X141087555Y-117215377D01*
X141078500Y-117210763D01*
X141027706Y-117162788D01*
X141010912Y-117094966D01*
X141033451Y-117028832D01*
X141078508Y-116989793D01*
X141087816Y-116985051D01*
X141167007Y-116927515D01*
X141259786Y-116860109D01*
X141259788Y-116860106D01*
X141259792Y-116860104D01*
X141410104Y-116709792D01*
X141410106Y-116709788D01*
X141410109Y-116709786D01*
X141535048Y-116537820D01*
X141535047Y-116537820D01*
X141535051Y-116537816D01*
X141631557Y-116348412D01*
X141697246Y-116146243D01*
X141730500Y-115936287D01*
X141730500Y-115723713D01*
X141697246Y-115513757D01*
X141631557Y-115311588D01*
X141535051Y-115122184D01*
X141535049Y-115122181D01*
X141535048Y-115122179D01*
X141410109Y-114950213D01*
X141259786Y-114799890D01*
X141087820Y-114674951D01*
X141087115Y-114674591D01*
X141079054Y-114670485D01*
X141028259Y-114622512D01*
X141011463Y-114554692D01*
X141033999Y-114488556D01*
X141079054Y-114449515D01*
X141087816Y-114445051D01*
X141109789Y-114429086D01*
X141259786Y-114320109D01*
X141259788Y-114320106D01*
X141259792Y-114320104D01*
X141410104Y-114169792D01*
X141410106Y-114169788D01*
X141410109Y-114169786D01*
X141535048Y-113997820D01*
X141535047Y-113997820D01*
X141535051Y-113997816D01*
X141631557Y-113808412D01*
X141697246Y-113606243D01*
X141730500Y-113396287D01*
X141730500Y-113183713D01*
X141697246Y-112973757D01*
X141631557Y-112771588D01*
X141535051Y-112582184D01*
X141535049Y-112582181D01*
X141535048Y-112582179D01*
X141410109Y-112410213D01*
X141259786Y-112259890D01*
X141087820Y-112134951D01*
X141087115Y-112134591D01*
X141079054Y-112130485D01*
X141028259Y-112082512D01*
X141011463Y-112014692D01*
X141033999Y-111948556D01*
X141079054Y-111909515D01*
X141087816Y-111905051D01*
X141109789Y-111889086D01*
X141259786Y-111780109D01*
X141259788Y-111780106D01*
X141259792Y-111780104D01*
X141410104Y-111629792D01*
X141410106Y-111629788D01*
X141410109Y-111629786D01*
X141535048Y-111457820D01*
X141535047Y-111457820D01*
X141535051Y-111457816D01*
X141631557Y-111268412D01*
X141697246Y-111066243D01*
X141730500Y-110856287D01*
X141730500Y-110643713D01*
X141697246Y-110433757D01*
X141631557Y-110231588D01*
X141535051Y-110042184D01*
X141535049Y-110042181D01*
X141535048Y-110042179D01*
X141410109Y-109870213D01*
X141259786Y-109719890D01*
X141087820Y-109594951D01*
X141087115Y-109594591D01*
X141079054Y-109590485D01*
X141028259Y-109542512D01*
X141011463Y-109474692D01*
X141033999Y-109408556D01*
X141079054Y-109369515D01*
X141087816Y-109365051D01*
X141109789Y-109349086D01*
X141259786Y-109240109D01*
X141259788Y-109240106D01*
X141259792Y-109240104D01*
X141410104Y-109089792D01*
X141410106Y-109089788D01*
X141410109Y-109089786D01*
X141535048Y-108917820D01*
X141535047Y-108917820D01*
X141535051Y-108917816D01*
X141631557Y-108728412D01*
X141697246Y-108526243D01*
X141730500Y-108316287D01*
X141730500Y-108103713D01*
X141697246Y-107893757D01*
X141631557Y-107691588D01*
X141535051Y-107502184D01*
X141535049Y-107502181D01*
X141535048Y-107502179D01*
X141410109Y-107330213D01*
X141259786Y-107179890D01*
X141087820Y-107054951D01*
X141087115Y-107054591D01*
X141079054Y-107050485D01*
X141028259Y-107002512D01*
X141011463Y-106934692D01*
X141033999Y-106868556D01*
X141079054Y-106829515D01*
X141087816Y-106825051D01*
X141109789Y-106809086D01*
X141259786Y-106700109D01*
X141259788Y-106700106D01*
X141259792Y-106700104D01*
X141410104Y-106549792D01*
X141410106Y-106549788D01*
X141410109Y-106549786D01*
X141535048Y-106377820D01*
X141535047Y-106377820D01*
X141535051Y-106377816D01*
X141631557Y-106188412D01*
X141697246Y-105986243D01*
X141730500Y-105776287D01*
X141730500Y-105563713D01*
X141697246Y-105353757D01*
X141631557Y-105151588D01*
X141535051Y-104962184D01*
X141535049Y-104962181D01*
X141535048Y-104962179D01*
X141410109Y-104790213D01*
X141259786Y-104639890D01*
X141087820Y-104514951D01*
X141087115Y-104514591D01*
X141079054Y-104510485D01*
X141028259Y-104462512D01*
X141011463Y-104394692D01*
X141033999Y-104328556D01*
X141079054Y-104289515D01*
X141087816Y-104285051D01*
X141109789Y-104269086D01*
X141259786Y-104160109D01*
X141259788Y-104160106D01*
X141259792Y-104160104D01*
X141410104Y-104009792D01*
X141410106Y-104009788D01*
X141410109Y-104009786D01*
X141535048Y-103837820D01*
X141535047Y-103837820D01*
X141535051Y-103837816D01*
X141631557Y-103648412D01*
X141697246Y-103446243D01*
X141730500Y-103236287D01*
X141730500Y-103023713D01*
X141697246Y-102813757D01*
X141631557Y-102611588D01*
X141535051Y-102422184D01*
X141535049Y-102422181D01*
X141535048Y-102422179D01*
X141410109Y-102250213D01*
X141259786Y-102099890D01*
X141087820Y-101974951D01*
X141087115Y-101974591D01*
X141079054Y-101970485D01*
X141028259Y-101922512D01*
X141011463Y-101854692D01*
X141033999Y-101788556D01*
X141079054Y-101749515D01*
X141087816Y-101745051D01*
X141146822Y-101702181D01*
X141259786Y-101620109D01*
X141259788Y-101620106D01*
X141259792Y-101620104D01*
X141410104Y-101469792D01*
X141410106Y-101469788D01*
X141410109Y-101469786D01*
X141535048Y-101297820D01*
X141535047Y-101297820D01*
X141535051Y-101297816D01*
X141631557Y-101108412D01*
X141697246Y-100906243D01*
X141730500Y-100696287D01*
X141730500Y-100537491D01*
X141750185Y-100470452D01*
X141766819Y-100449810D01*
X146684702Y-95531927D01*
X146684705Y-95531924D01*
X146765198Y-95411459D01*
X146781175Y-95387547D01*
X146847624Y-95227124D01*
X146874412Y-95092453D01*
X146881500Y-95056821D01*
X146881500Y-94883179D01*
X146881500Y-92863713D01*
X154269500Y-92863713D01*
X154269500Y-93076287D01*
X154271169Y-93086823D01*
X154298142Y-93257128D01*
X154302754Y-93286243D01*
X154345417Y-93417547D01*
X154368444Y-93488414D01*
X154464951Y-93677820D01*
X154589890Y-93849786D01*
X154740213Y-94000109D01*
X154912182Y-94125050D01*
X154920946Y-94129516D01*
X154971742Y-94177491D01*
X154988536Y-94245312D01*
X154965998Y-94311447D01*
X154920946Y-94350484D01*
X154912182Y-94354949D01*
X154740213Y-94479890D01*
X154589890Y-94630213D01*
X154464951Y-94802179D01*
X154368444Y-94991585D01*
X154302753Y-95193760D01*
X154269500Y-95403713D01*
X154269500Y-95616286D01*
X154302753Y-95826239D01*
X154368444Y-96028414D01*
X154464951Y-96217820D01*
X154589890Y-96389786D01*
X154740213Y-96540109D01*
X154912182Y-96665050D01*
X154920946Y-96669516D01*
X154971742Y-96717491D01*
X154988536Y-96785312D01*
X154965998Y-96851447D01*
X154920946Y-96890484D01*
X154912182Y-96894949D01*
X154740213Y-97019890D01*
X154589890Y-97170213D01*
X154464951Y-97342179D01*
X154368444Y-97531585D01*
X154302753Y-97733760D01*
X154269500Y-97943713D01*
X154269500Y-98156286D01*
X154302753Y-98366239D01*
X154368444Y-98568414D01*
X154464951Y-98757820D01*
X154589890Y-98929786D01*
X154740213Y-99080109D01*
X154912182Y-99205050D01*
X154920946Y-99209516D01*
X154971742Y-99257491D01*
X154988536Y-99325312D01*
X154965998Y-99391447D01*
X154920946Y-99430484D01*
X154912182Y-99434949D01*
X154740213Y-99559890D01*
X154589890Y-99710213D01*
X154464951Y-99882179D01*
X154368444Y-100071585D01*
X154302753Y-100273760D01*
X154269500Y-100483713D01*
X154269500Y-100696286D01*
X154302753Y-100906239D01*
X154368444Y-101108414D01*
X154464951Y-101297820D01*
X154589890Y-101469786D01*
X154740213Y-101620109D01*
X154912182Y-101745050D01*
X154920946Y-101749516D01*
X154971742Y-101797491D01*
X154988536Y-101865312D01*
X154965998Y-101931447D01*
X154920946Y-101970484D01*
X154912182Y-101974949D01*
X154740213Y-102099890D01*
X154589890Y-102250213D01*
X154464951Y-102422179D01*
X154368444Y-102611585D01*
X154302753Y-102813760D01*
X154274870Y-102989811D01*
X154269500Y-103023713D01*
X154269500Y-103236287D01*
X154302754Y-103446243D01*
X154327104Y-103521185D01*
X154368444Y-103648414D01*
X154464951Y-103837820D01*
X154589890Y-104009786D01*
X154740213Y-104160109D01*
X154912182Y-104285050D01*
X154920946Y-104289516D01*
X154971742Y-104337491D01*
X154988536Y-104405312D01*
X154965998Y-104471447D01*
X154920946Y-104510484D01*
X154912182Y-104514949D01*
X154740213Y-104639890D01*
X154589890Y-104790213D01*
X154464951Y-104962179D01*
X154368444Y-105151585D01*
X154302753Y-105353760D01*
X154269500Y-105563713D01*
X154269500Y-105776286D01*
X154302753Y-105986239D01*
X154368444Y-106188414D01*
X154464951Y-106377820D01*
X154589890Y-106549786D01*
X154740213Y-106700109D01*
X154912182Y-106825050D01*
X154920946Y-106829516D01*
X154971742Y-106877491D01*
X154988536Y-106945312D01*
X154965998Y-107011447D01*
X154920946Y-107050484D01*
X154912182Y-107054949D01*
X154740213Y-107179890D01*
X154589890Y-107330213D01*
X154464951Y-107502179D01*
X154368444Y-107691585D01*
X154302753Y-107893760D01*
X154269500Y-108103713D01*
X154269500Y-108316286D01*
X154302753Y-108526239D01*
X154368444Y-108728414D01*
X154464951Y-108917820D01*
X154589890Y-109089786D01*
X154740213Y-109240109D01*
X154912182Y-109365050D01*
X154920946Y-109369516D01*
X154971742Y-109417491D01*
X154988536Y-109485312D01*
X154965998Y-109551447D01*
X154920946Y-109590484D01*
X154912182Y-109594949D01*
X154740213Y-109719890D01*
X154589890Y-109870213D01*
X154464951Y-110042179D01*
X154368444Y-110231585D01*
X154302753Y-110433760D01*
X154279232Y-110582266D01*
X154269500Y-110643713D01*
X154269500Y-110856287D01*
X154302754Y-111066243D01*
X154313505Y-111099332D01*
X154368444Y-111268414D01*
X154464951Y-111457820D01*
X154589890Y-111629786D01*
X154740213Y-111780109D01*
X154912182Y-111905050D01*
X154920946Y-111909516D01*
X154971742Y-111957491D01*
X154988536Y-112025312D01*
X154965998Y-112091447D01*
X154920946Y-112130484D01*
X154912182Y-112134949D01*
X154740213Y-112259890D01*
X154589890Y-112410213D01*
X154464951Y-112582179D01*
X154368444Y-112771585D01*
X154302753Y-112973760D01*
X154269500Y-113183713D01*
X154269500Y-113396286D01*
X154302753Y-113606239D01*
X154368444Y-113808414D01*
X154464951Y-113997820D01*
X154589890Y-114169786D01*
X154740213Y-114320109D01*
X154912182Y-114445050D01*
X154920946Y-114449516D01*
X154971742Y-114497491D01*
X154988536Y-114565312D01*
X154965998Y-114631447D01*
X154920946Y-114670484D01*
X154912182Y-114674949D01*
X154740213Y-114799890D01*
X154589890Y-114950213D01*
X154464951Y-115122179D01*
X154368444Y-115311585D01*
X154302753Y-115513760D01*
X154269500Y-115723713D01*
X154269500Y-115936286D01*
X154302753Y-116146239D01*
X154368444Y-116348414D01*
X154464951Y-116537820D01*
X154589890Y-116709786D01*
X154740213Y-116860109D01*
X154912179Y-116985048D01*
X154912181Y-116985049D01*
X154912184Y-116985051D01*
X154921493Y-116989794D01*
X154972290Y-117037766D01*
X154989087Y-117105587D01*
X154966552Y-117171722D01*
X154921502Y-117210762D01*
X154912443Y-117215378D01*
X154740540Y-117340272D01*
X154740535Y-117340276D01*
X154590276Y-117490535D01*
X154590272Y-117490540D01*
X154465379Y-117662442D01*
X154368904Y-117851782D01*
X154303242Y-118053870D01*
X154303242Y-118053873D01*
X154292769Y-118120000D01*
X155186988Y-118120000D01*
X155154075Y-118177007D01*
X155120000Y-118304174D01*
X155120000Y-118435826D01*
X155154075Y-118562993D01*
X155186988Y-118620000D01*
X154292769Y-118620000D01*
X154303242Y-118686126D01*
X154303242Y-118686129D01*
X154368904Y-118888217D01*
X154465379Y-119077557D01*
X154590272Y-119249459D01*
X154590276Y-119249464D01*
X154740535Y-119399723D01*
X154740540Y-119399727D01*
X154912444Y-119524622D01*
X154922048Y-119529516D01*
X154972844Y-119577491D01*
X154989638Y-119645312D01*
X154967100Y-119711447D01*
X154922048Y-119750484D01*
X154912444Y-119755377D01*
X154740540Y-119880272D01*
X154740535Y-119880276D01*
X154590276Y-120030535D01*
X154590272Y-120030540D01*
X154465379Y-120202442D01*
X154368904Y-120391782D01*
X154303242Y-120593870D01*
X154303242Y-120593873D01*
X154292769Y-120660000D01*
X155186988Y-120660000D01*
X155154075Y-120717007D01*
X155120000Y-120844174D01*
X155120000Y-120975826D01*
X155154075Y-121102993D01*
X155186988Y-121160000D01*
X154292769Y-121160000D01*
X154303242Y-121226126D01*
X154303242Y-121226129D01*
X154368904Y-121428217D01*
X154465379Y-121617557D01*
X154590272Y-121789459D01*
X154590276Y-121789464D01*
X154740535Y-121939723D01*
X154740540Y-121939727D01*
X154912442Y-122064620D01*
X155101782Y-122161095D01*
X155303871Y-122226757D01*
X155370000Y-122237231D01*
X155370000Y-121343012D01*
X155427007Y-121375925D01*
X155554174Y-121410000D01*
X155685826Y-121410000D01*
X155812993Y-121375925D01*
X155870000Y-121343012D01*
X155870000Y-122237230D01*
X155936126Y-122226757D01*
X155936129Y-122226757D01*
X156138217Y-122161095D01*
X156327557Y-122064620D01*
X156499459Y-121939727D01*
X156499464Y-121939723D01*
X156649723Y-121789464D01*
X156649727Y-121789459D01*
X156774620Y-121617557D01*
X156871095Y-121428217D01*
X156936757Y-121226129D01*
X156936757Y-121226126D01*
X156947231Y-121160000D01*
X156053012Y-121160000D01*
X156085925Y-121102993D01*
X156120000Y-120975826D01*
X156120000Y-120844174D01*
X156085925Y-120717007D01*
X156053012Y-120660000D01*
X156947231Y-120660000D01*
X156936757Y-120593873D01*
X156936757Y-120593870D01*
X156871095Y-120391782D01*
X156774620Y-120202442D01*
X156649727Y-120030540D01*
X156649723Y-120030535D01*
X156499464Y-119880276D01*
X156499459Y-119880272D01*
X156327558Y-119755379D01*
X156317954Y-119750486D01*
X156267157Y-119702512D01*
X156250361Y-119634692D01*
X156272897Y-119568556D01*
X156317954Y-119529514D01*
X156327558Y-119524620D01*
X156499459Y-119399727D01*
X156499464Y-119399723D01*
X156649723Y-119249464D01*
X156649727Y-119249459D01*
X156774620Y-119077557D01*
X156871095Y-118888217D01*
X156936757Y-118686129D01*
X156936757Y-118686126D01*
X156947231Y-118620000D01*
X156053012Y-118620000D01*
X156085925Y-118562993D01*
X156120000Y-118435826D01*
X156120000Y-118304174D01*
X156085925Y-118177007D01*
X156053012Y-118120000D01*
X156947231Y-118120000D01*
X156936757Y-118053873D01*
X156936757Y-118053870D01*
X156871095Y-117851782D01*
X156774620Y-117662442D01*
X156649727Y-117490540D01*
X156649723Y-117490535D01*
X156499464Y-117340276D01*
X156499459Y-117340272D01*
X156327555Y-117215377D01*
X156318500Y-117210763D01*
X156267706Y-117162788D01*
X156250912Y-117094966D01*
X156273451Y-117028832D01*
X156318508Y-116989793D01*
X156327816Y-116985051D01*
X156407007Y-116927515D01*
X156499786Y-116860109D01*
X156499788Y-116860106D01*
X156499792Y-116860104D01*
X156650104Y-116709792D01*
X156650106Y-116709788D01*
X156650109Y-116709786D01*
X156775048Y-116537820D01*
X156775047Y-116537820D01*
X156775051Y-116537816D01*
X156871557Y-116348412D01*
X156937246Y-116146243D01*
X156970500Y-115936287D01*
X156970500Y-115723713D01*
X156937246Y-115513757D01*
X156871557Y-115311588D01*
X156775051Y-115122184D01*
X156775049Y-115122181D01*
X156775048Y-115122179D01*
X156650109Y-114950213D01*
X156499786Y-114799890D01*
X156327820Y-114674951D01*
X156327115Y-114674591D01*
X156319054Y-114670485D01*
X156268259Y-114622512D01*
X156251463Y-114554692D01*
X156273999Y-114488556D01*
X156319054Y-114449515D01*
X156327816Y-114445051D01*
X156349789Y-114429086D01*
X156499786Y-114320109D01*
X156499788Y-114320106D01*
X156499792Y-114320104D01*
X156650104Y-114169792D01*
X156650106Y-114169788D01*
X156650109Y-114169786D01*
X156775048Y-113997820D01*
X156775047Y-113997820D01*
X156775051Y-113997816D01*
X156871557Y-113808412D01*
X156937246Y-113606243D01*
X156970500Y-113396287D01*
X156970500Y-113183713D01*
X156937246Y-112973757D01*
X156871557Y-112771588D01*
X156775051Y-112582184D01*
X156775049Y-112582181D01*
X156775048Y-112582179D01*
X156650109Y-112410213D01*
X156499786Y-112259890D01*
X156327820Y-112134951D01*
X156327115Y-112134591D01*
X156319054Y-112130485D01*
X156268259Y-112082512D01*
X156251463Y-112014692D01*
X156273999Y-111948556D01*
X156319054Y-111909515D01*
X156327816Y-111905051D01*
X156349789Y-111889086D01*
X156499786Y-111780109D01*
X156499788Y-111780106D01*
X156499792Y-111780104D01*
X156650104Y-111629792D01*
X156650106Y-111629788D01*
X156650109Y-111629786D01*
X156775048Y-111457820D01*
X156775047Y-111457820D01*
X156775051Y-111457816D01*
X156871557Y-111268412D01*
X156937246Y-111066243D01*
X156970500Y-110856287D01*
X156970500Y-110643713D01*
X156937246Y-110433757D01*
X156871557Y-110231588D01*
X156775051Y-110042184D01*
X156775049Y-110042181D01*
X156775048Y-110042179D01*
X156650109Y-109870213D01*
X156499786Y-109719890D01*
X156327820Y-109594951D01*
X156327115Y-109594591D01*
X156319054Y-109590485D01*
X156268259Y-109542512D01*
X156251463Y-109474692D01*
X156273999Y-109408556D01*
X156319054Y-109369515D01*
X156327816Y-109365051D01*
X156349789Y-109349086D01*
X156499786Y-109240109D01*
X156499788Y-109240106D01*
X156499792Y-109240104D01*
X156650104Y-109089792D01*
X156650106Y-109089788D01*
X156650109Y-109089786D01*
X156775048Y-108917820D01*
X156775047Y-108917820D01*
X156775051Y-108917816D01*
X156871557Y-108728412D01*
X156937246Y-108526243D01*
X156970500Y-108316287D01*
X156970500Y-108157491D01*
X156990185Y-108090452D01*
X157006819Y-108069810D01*
X161538810Y-103537819D01*
X161600133Y-103504334D01*
X161626491Y-103501500D01*
X169990953Y-103501500D01*
X170057992Y-103521185D01*
X170078634Y-103537819D01*
X170152786Y-103611971D01*
X170307749Y-103724556D01*
X170318390Y-103732287D01*
X170434607Y-103791503D01*
X170500776Y-103825218D01*
X170500778Y-103825218D01*
X170500781Y-103825220D01*
X170605137Y-103859127D01*
X170695465Y-103888477D01*
X170796557Y-103904488D01*
X170897648Y-103920500D01*
X170897649Y-103920500D01*
X171102351Y-103920500D01*
X171102352Y-103920500D01*
X171304534Y-103888477D01*
X171499219Y-103825220D01*
X171681610Y-103732287D01*
X171797055Y-103648412D01*
X171847213Y-103611971D01*
X171847215Y-103611968D01*
X171847219Y-103611966D01*
X171991966Y-103467219D01*
X171991968Y-103467215D01*
X171991971Y-103467213D01*
X172044732Y-103394590D01*
X172112287Y-103301610D01*
X172205220Y-103119219D01*
X172268477Y-102924534D01*
X172300500Y-102722352D01*
X172300500Y-102517648D01*
X172268477Y-102315466D01*
X172205220Y-102120781D01*
X172205218Y-102120778D01*
X172205218Y-102120776D01*
X172171503Y-102054607D01*
X172112287Y-101938390D01*
X172089660Y-101907246D01*
X171991971Y-101772786D01*
X171847213Y-101628028D01*
X171681613Y-101507715D01*
X171681612Y-101507714D01*
X171681610Y-101507713D01*
X171607174Y-101469786D01*
X171499223Y-101414781D01*
X171304534Y-101351522D01*
X171129995Y-101323878D01*
X171102352Y-101319500D01*
X170897648Y-101319500D01*
X170873329Y-101323351D01*
X170695465Y-101351522D01*
X170500776Y-101414781D01*
X170318386Y-101507715D01*
X170152786Y-101628028D01*
X170152782Y-101628032D01*
X170078634Y-101702181D01*
X170017311Y-101735666D01*
X169990953Y-101738500D01*
X161123174Y-101738500D01*
X160952883Y-101772373D01*
X160952875Y-101772375D01*
X160862463Y-101809825D01*
X160862457Y-101809828D01*
X160855394Y-101812754D01*
X160792453Y-101838825D01*
X160690054Y-101907246D01*
X160686294Y-101909758D01*
X160686291Y-101909760D01*
X160648074Y-101935295D01*
X157149304Y-105434065D01*
X157087981Y-105467550D01*
X157018289Y-105462566D01*
X156962356Y-105420694D01*
X156939150Y-105365780D01*
X156937246Y-105353757D01*
X156871557Y-105151588D01*
X156775051Y-104962184D01*
X156775049Y-104962181D01*
X156775048Y-104962179D01*
X156650109Y-104790213D01*
X156499786Y-104639890D01*
X156327820Y-104514951D01*
X156327115Y-104514591D01*
X156319054Y-104510485D01*
X156268259Y-104462512D01*
X156251463Y-104394692D01*
X156273999Y-104328556D01*
X156319054Y-104289515D01*
X156327816Y-104285051D01*
X156349789Y-104269086D01*
X156499786Y-104160109D01*
X156499788Y-104160106D01*
X156499792Y-104160104D01*
X156650104Y-104009792D01*
X156650106Y-104009788D01*
X156650109Y-104009786D01*
X156775048Y-103837820D01*
X156775047Y-103837820D01*
X156775051Y-103837816D01*
X156871557Y-103648412D01*
X156937246Y-103446243D01*
X156970500Y-103236287D01*
X156970500Y-103077492D01*
X156990185Y-103010453D01*
X157006819Y-102989811D01*
X160458811Y-99537819D01*
X160520134Y-99504334D01*
X160546492Y-99501500D01*
X162990953Y-99501500D01*
X163057992Y-99521185D01*
X163078634Y-99537819D01*
X163152786Y-99611971D01*
X163288007Y-99710213D01*
X163318390Y-99732287D01*
X163434607Y-99791503D01*
X163500776Y-99825218D01*
X163500778Y-99825218D01*
X163500781Y-99825220D01*
X163605137Y-99859127D01*
X163695465Y-99888477D01*
X163796557Y-99904488D01*
X163897648Y-99920500D01*
X163897649Y-99920500D01*
X164102351Y-99920500D01*
X164102352Y-99920500D01*
X164304534Y-99888477D01*
X164499219Y-99825220D01*
X164681610Y-99732287D01*
X164774590Y-99664732D01*
X164847213Y-99611971D01*
X164847215Y-99611968D01*
X164847219Y-99611966D01*
X164991966Y-99467219D01*
X164991968Y-99467215D01*
X164991971Y-99467213D01*
X165085526Y-99338443D01*
X165112287Y-99301610D01*
X165205220Y-99119219D01*
X165268477Y-98924534D01*
X165300500Y-98722352D01*
X165300500Y-98517648D01*
X165268477Y-98315465D01*
X165239127Y-98225137D01*
X165205220Y-98120781D01*
X165205218Y-98120778D01*
X165205218Y-98120776D01*
X165171503Y-98054607D01*
X165112287Y-97938390D01*
X165104556Y-97927749D01*
X164991971Y-97772786D01*
X164847213Y-97628028D01*
X164681613Y-97507715D01*
X164681612Y-97507714D01*
X164681610Y-97507713D01*
X164624653Y-97478691D01*
X164499223Y-97414781D01*
X164304534Y-97351522D01*
X164129995Y-97323878D01*
X164102352Y-97319500D01*
X163897648Y-97319500D01*
X163873329Y-97323351D01*
X163695465Y-97351522D01*
X163500776Y-97414781D01*
X163318386Y-97507715D01*
X163152786Y-97628028D01*
X163152782Y-97628032D01*
X163078634Y-97702181D01*
X163017311Y-97735666D01*
X162990953Y-97738500D01*
X160043177Y-97738500D01*
X159872881Y-97772374D01*
X159872871Y-97772377D01*
X159712456Y-97838822D01*
X159568073Y-97935295D01*
X159568072Y-97935296D01*
X157149304Y-100354065D01*
X157087981Y-100387550D01*
X157018289Y-100382566D01*
X156962356Y-100340694D01*
X156939150Y-100285780D01*
X156937246Y-100273757D01*
X156871557Y-100071588D01*
X156775051Y-99882184D01*
X156775049Y-99882181D01*
X156775048Y-99882179D01*
X156650109Y-99710213D01*
X156499786Y-99559890D01*
X156327820Y-99434951D01*
X156327115Y-99434591D01*
X156319054Y-99430485D01*
X156268259Y-99382512D01*
X156251463Y-99314692D01*
X156273999Y-99248556D01*
X156319054Y-99209515D01*
X156327816Y-99205051D01*
X156349789Y-99189086D01*
X156499786Y-99080109D01*
X156499788Y-99080106D01*
X156499792Y-99080104D01*
X156650104Y-98929792D01*
X156650106Y-98929788D01*
X156650109Y-98929786D01*
X156775048Y-98757820D01*
X156775047Y-98757820D01*
X156775051Y-98757816D01*
X156871557Y-98568412D01*
X156937246Y-98366243D01*
X156970500Y-98156287D01*
X156970500Y-97943713D01*
X156937246Y-97733757D01*
X156871557Y-97531588D01*
X156775051Y-97342184D01*
X156775049Y-97342181D01*
X156775048Y-97342179D01*
X156650109Y-97170213D01*
X156499786Y-97019890D01*
X156327820Y-96894951D01*
X156327115Y-96894591D01*
X156319054Y-96890485D01*
X156268259Y-96842512D01*
X156251463Y-96774692D01*
X156273999Y-96708556D01*
X156319054Y-96669515D01*
X156327816Y-96665051D01*
X156349789Y-96649086D01*
X156499786Y-96540109D01*
X156499788Y-96540106D01*
X156499792Y-96540104D01*
X156650104Y-96389792D01*
X156650106Y-96389788D01*
X156650109Y-96389786D01*
X156775048Y-96217820D01*
X156775047Y-96217820D01*
X156775051Y-96217816D01*
X156871557Y-96028412D01*
X156937246Y-95826243D01*
X156970500Y-95616287D01*
X156970500Y-95403713D01*
X156937246Y-95193757D01*
X156871557Y-94991588D01*
X156871554Y-94991582D01*
X156849895Y-94949072D01*
X156849894Y-94949071D01*
X156816320Y-94883179D01*
X156775051Y-94802184D01*
X156767023Y-94791134D01*
X156650109Y-94630213D01*
X156499786Y-94479890D01*
X156327820Y-94354951D01*
X156327115Y-94354591D01*
X156319054Y-94350485D01*
X156268259Y-94302512D01*
X156251463Y-94234692D01*
X156273999Y-94168556D01*
X156319054Y-94129515D01*
X156327816Y-94125051D01*
X156414138Y-94062335D01*
X156499786Y-94000109D01*
X156499788Y-94000106D01*
X156499792Y-94000104D01*
X156650104Y-93849792D01*
X156650106Y-93849788D01*
X156650109Y-93849786D01*
X156775048Y-93677820D01*
X156775047Y-93677820D01*
X156775051Y-93677816D01*
X156871557Y-93488412D01*
X156937246Y-93286243D01*
X156970500Y-93076287D01*
X156970500Y-92863713D01*
X156937246Y-92653757D01*
X156871557Y-92451588D01*
X156775051Y-92262184D01*
X156775049Y-92262181D01*
X156775048Y-92262179D01*
X156650109Y-92090213D01*
X156499786Y-91939890D01*
X156327820Y-91814951D01*
X156138414Y-91718444D01*
X156138413Y-91718443D01*
X156138412Y-91718443D01*
X155936243Y-91652754D01*
X155936241Y-91652753D01*
X155936240Y-91652753D01*
X155774957Y-91627208D01*
X155726287Y-91619500D01*
X155513713Y-91619500D01*
X155465042Y-91627208D01*
X155303760Y-91652753D01*
X155101585Y-91718444D01*
X154912179Y-91814951D01*
X154740213Y-91939890D01*
X154589890Y-92090213D01*
X154464951Y-92262179D01*
X154368444Y-92451585D01*
X154302753Y-92653760D01*
X154299993Y-92671189D01*
X154269500Y-92863713D01*
X146881500Y-92863713D01*
X146881500Y-83416491D01*
X146901185Y-83349452D01*
X146917819Y-83328810D01*
X148194474Y-82052155D01*
X161060000Y-82052155D01*
X161060000Y-82750000D01*
X162084722Y-82750000D01*
X162040667Y-82826306D01*
X162010000Y-82940756D01*
X162010000Y-83059244D01*
X162040667Y-83173694D01*
X162084722Y-83250000D01*
X161060000Y-83250000D01*
X161060000Y-83947844D01*
X161066401Y-84007372D01*
X161066403Y-84007379D01*
X161116645Y-84142086D01*
X161116649Y-84142093D01*
X161202809Y-84257187D01*
X161202812Y-84257190D01*
X161317906Y-84343350D01*
X161317913Y-84343354D01*
X161452620Y-84393596D01*
X161452627Y-84393598D01*
X161512155Y-84399999D01*
X161512172Y-84400000D01*
X162210000Y-84400000D01*
X162210000Y-83375277D01*
X162286306Y-83419333D01*
X162400756Y-83450000D01*
X162519244Y-83450000D01*
X162633694Y-83419333D01*
X162710000Y-83375277D01*
X162710000Y-84400000D01*
X162994500Y-84400000D01*
X163061539Y-84419685D01*
X163107294Y-84472489D01*
X163118500Y-84524000D01*
X163118500Y-89990953D01*
X163098815Y-90057992D01*
X163082181Y-90078634D01*
X163008032Y-90152782D01*
X163008028Y-90152786D01*
X162887715Y-90318386D01*
X162794781Y-90500776D01*
X162731522Y-90695465D01*
X162699500Y-90897648D01*
X162699500Y-91102351D01*
X162731522Y-91304534D01*
X162794781Y-91499223D01*
X162856066Y-91619500D01*
X162884957Y-91676202D01*
X162887715Y-91681613D01*
X163008028Y-91847213D01*
X163152786Y-91991971D01*
X163288007Y-92090213D01*
X163318390Y-92112287D01*
X163434607Y-92171503D01*
X163500776Y-92205218D01*
X163500778Y-92205218D01*
X163500781Y-92205220D01*
X163605137Y-92239127D01*
X163695465Y-92268477D01*
X163796557Y-92284488D01*
X163897648Y-92300500D01*
X163897649Y-92300500D01*
X164102351Y-92300500D01*
X164102352Y-92300500D01*
X164304534Y-92268477D01*
X164499219Y-92205220D01*
X164681610Y-92112287D01*
X164818933Y-92012517D01*
X164847213Y-91991971D01*
X164847215Y-91991968D01*
X164847219Y-91991966D01*
X164991966Y-91847219D01*
X164991968Y-91847215D01*
X164991971Y-91847213D01*
X165053552Y-91762452D01*
X165112287Y-91681610D01*
X165205220Y-91499219D01*
X165268477Y-91304534D01*
X165300500Y-91102352D01*
X165300500Y-90897648D01*
X165268477Y-90695466D01*
X165205220Y-90500781D01*
X165205218Y-90500778D01*
X165205218Y-90500776D01*
X165171503Y-90434607D01*
X165112287Y-90318390D01*
X165104556Y-90307749D01*
X164991971Y-90152786D01*
X164917819Y-90078634D01*
X164884334Y-90017311D01*
X164881500Y-89990953D01*
X164881500Y-84524500D01*
X164901185Y-84457461D01*
X164953989Y-84411706D01*
X165005500Y-84400500D01*
X165110221Y-84400500D01*
X165110222Y-84400500D01*
X165327951Y-84366015D01*
X165537606Y-84297895D01*
X165734022Y-84197815D01*
X165912365Y-84068242D01*
X166068242Y-83912365D01*
X166197815Y-83734022D01*
X166297895Y-83537606D01*
X166366015Y-83327951D01*
X166400500Y-83110222D01*
X166400500Y-82889778D01*
X166366015Y-82672049D01*
X166331955Y-82567221D01*
X166297896Y-82462396D01*
X166297895Y-82462393D01*
X166197815Y-82265978D01*
X166093018Y-82121736D01*
X166093017Y-82121735D01*
X166068243Y-82087636D01*
X166032762Y-82052155D01*
X169060000Y-82052155D01*
X169060000Y-82750000D01*
X170084722Y-82750000D01*
X170040667Y-82826306D01*
X170010000Y-82940756D01*
X170010000Y-83059244D01*
X170040667Y-83173694D01*
X170084722Y-83250000D01*
X169060000Y-83250000D01*
X169060000Y-83947844D01*
X169066401Y-84007372D01*
X169066403Y-84007379D01*
X169116645Y-84142086D01*
X169116649Y-84142093D01*
X169202809Y-84257187D01*
X169202812Y-84257190D01*
X169317906Y-84343350D01*
X169317913Y-84343354D01*
X169452620Y-84393596D01*
X169452627Y-84393598D01*
X169512155Y-84399999D01*
X169512172Y-84400000D01*
X170210000Y-84400000D01*
X170210000Y-83375277D01*
X170286306Y-83419333D01*
X170400756Y-83450000D01*
X170519244Y-83450000D01*
X170633694Y-83419333D01*
X170710000Y-83375277D01*
X170710000Y-84400000D01*
X171407828Y-84400000D01*
X171407844Y-84399999D01*
X171467372Y-84393598D01*
X171467379Y-84393596D01*
X171602086Y-84343354D01*
X171602093Y-84343350D01*
X171717187Y-84257190D01*
X171717190Y-84257187D01*
X171803350Y-84142093D01*
X171803355Y-84142084D01*
X171833212Y-84062032D01*
X171875082Y-84006098D01*
X171940546Y-83981680D01*
X171940547Y-83981680D01*
X172008820Y-83996531D01*
X172037074Y-84017682D01*
X172082180Y-84062787D01*
X172115666Y-84124110D01*
X172118500Y-84150469D01*
X172118500Y-92583508D01*
X172098815Y-92650547D01*
X172082181Y-92671189D01*
X171090189Y-93663181D01*
X171028866Y-93696666D01*
X171002508Y-93699500D01*
X170897648Y-93699500D01*
X170873329Y-93703351D01*
X170695465Y-93731522D01*
X170500776Y-93794781D01*
X170318386Y-93887715D01*
X170152786Y-94008028D01*
X170008028Y-94152786D01*
X169887715Y-94318386D01*
X169794781Y-94500776D01*
X169731522Y-94695465D01*
X169699500Y-94897648D01*
X169699500Y-95102351D01*
X169731522Y-95304534D01*
X169794781Y-95499223D01*
X169887715Y-95681613D01*
X170008028Y-95847213D01*
X170152786Y-95991971D01*
X170262833Y-96071923D01*
X170318390Y-96112287D01*
X170434607Y-96171503D01*
X170500776Y-96205218D01*
X170500778Y-96205218D01*
X170500781Y-96205220D01*
X170605137Y-96239127D01*
X170695465Y-96268477D01*
X170796557Y-96284488D01*
X170897648Y-96300500D01*
X170897649Y-96300500D01*
X171102351Y-96300500D01*
X171102352Y-96300500D01*
X171304534Y-96268477D01*
X171499219Y-96205220D01*
X171681610Y-96112287D01*
X171797055Y-96028412D01*
X171847213Y-95991971D01*
X171847215Y-95991968D01*
X171847219Y-95991966D01*
X171991966Y-95847219D01*
X171991968Y-95847215D01*
X171991971Y-95847213D01*
X172044732Y-95774590D01*
X172112287Y-95681610D01*
X172205220Y-95499219D01*
X172268477Y-95304534D01*
X172300500Y-95102352D01*
X172300500Y-94997492D01*
X172320185Y-94930453D01*
X172336819Y-94909811D01*
X173684704Y-93561926D01*
X173684706Y-93561924D01*
X173781175Y-93417547D01*
X173847624Y-93257124D01*
X173881500Y-93086821D01*
X173881500Y-92913179D01*
X173881500Y-84150469D01*
X173901185Y-84083430D01*
X173917819Y-84062788D01*
X173984076Y-83996531D01*
X174068242Y-83912365D01*
X174197815Y-83734022D01*
X174297895Y-83537606D01*
X174366015Y-83327951D01*
X174400500Y-83110222D01*
X174400500Y-82889778D01*
X174366015Y-82672049D01*
X174331955Y-82567221D01*
X174297896Y-82462396D01*
X174297895Y-82462393D01*
X174263237Y-82394375D01*
X174197815Y-82265978D01*
X174093017Y-82121735D01*
X174068247Y-82087641D01*
X174068243Y-82087636D01*
X173912363Y-81931756D01*
X173912358Y-81931752D01*
X173734025Y-81802187D01*
X173734024Y-81802186D01*
X173734022Y-81802185D01*
X173671096Y-81770122D01*
X173537606Y-81702104D01*
X173537603Y-81702103D01*
X173327952Y-81633985D01*
X173219086Y-81616742D01*
X173110222Y-81599500D01*
X172889778Y-81599500D01*
X172817201Y-81610995D01*
X172672047Y-81633985D01*
X172462396Y-81702103D01*
X172462393Y-81702104D01*
X172265974Y-81802187D01*
X172087641Y-81931752D01*
X172087636Y-81931756D01*
X172037075Y-81982317D01*
X171975752Y-82015801D01*
X171906060Y-82010816D01*
X171850127Y-81968945D01*
X171833213Y-81937968D01*
X171803354Y-81857913D01*
X171803350Y-81857906D01*
X171717190Y-81742812D01*
X171717187Y-81742809D01*
X171602093Y-81656649D01*
X171602086Y-81656645D01*
X171467379Y-81606403D01*
X171467372Y-81606401D01*
X171407844Y-81600000D01*
X170710000Y-81600000D01*
X170710000Y-82624722D01*
X170633694Y-82580667D01*
X170519244Y-82550000D01*
X170400756Y-82550000D01*
X170286306Y-82580667D01*
X170210000Y-82624722D01*
X170210000Y-81600000D01*
X169512155Y-81600000D01*
X169452627Y-81606401D01*
X169452620Y-81606403D01*
X169317913Y-81656645D01*
X169317906Y-81656649D01*
X169202812Y-81742809D01*
X169202809Y-81742812D01*
X169116649Y-81857906D01*
X169116645Y-81857913D01*
X169066403Y-81992620D01*
X169066401Y-81992627D01*
X169060000Y-82052155D01*
X166032762Y-82052155D01*
X165912363Y-81931756D01*
X165912358Y-81931752D01*
X165734025Y-81802187D01*
X165734024Y-81802186D01*
X165734022Y-81802185D01*
X165671096Y-81770122D01*
X165537606Y-81702104D01*
X165537603Y-81702103D01*
X165327952Y-81633985D01*
X165219086Y-81616742D01*
X165110222Y-81599500D01*
X164889778Y-81599500D01*
X164817201Y-81610995D01*
X164672047Y-81633985D01*
X164462396Y-81702103D01*
X164462393Y-81702104D01*
X164265974Y-81802187D01*
X164087641Y-81931752D01*
X164087636Y-81931756D01*
X164037075Y-81982317D01*
X163975752Y-82015801D01*
X163906060Y-82010816D01*
X163850127Y-81968945D01*
X163833213Y-81937968D01*
X163803354Y-81857913D01*
X163803350Y-81857906D01*
X163717190Y-81742812D01*
X163717187Y-81742809D01*
X163602093Y-81656649D01*
X163602086Y-81656645D01*
X163467379Y-81606403D01*
X163467372Y-81606401D01*
X163407844Y-81600000D01*
X162710000Y-81600000D01*
X162710000Y-82624722D01*
X162633694Y-82580667D01*
X162519244Y-82550000D01*
X162400756Y-82550000D01*
X162286306Y-82580667D01*
X162210000Y-82624722D01*
X162210000Y-81600000D01*
X161512155Y-81600000D01*
X161452627Y-81606401D01*
X161452620Y-81606403D01*
X161317913Y-81656645D01*
X161317906Y-81656649D01*
X161202812Y-81742809D01*
X161202809Y-81742812D01*
X161116649Y-81857906D01*
X161116645Y-81857913D01*
X161066403Y-81992620D01*
X161066401Y-81992627D01*
X161060000Y-82052155D01*
X148194474Y-82052155D01*
X152328810Y-77917819D01*
X152390133Y-77884334D01*
X152416491Y-77881500D01*
X173182688Y-77881500D01*
X173297258Y-77858709D01*
X173352989Y-77847624D01*
X173433200Y-77814399D01*
X173513408Y-77781177D01*
X173513409Y-77781176D01*
X173513412Y-77781175D01*
X173657789Y-77684706D01*
X184224705Y-67117789D01*
X184232397Y-67106278D01*
X184321175Y-66973412D01*
X184387624Y-66812989D01*
X184421500Y-66642685D01*
X184421500Y-65079758D01*
X184441185Y-65012719D01*
X184457819Y-64992077D01*
X184500078Y-64949818D01*
X184570104Y-64879792D01*
X184570106Y-64879788D01*
X184570109Y-64879786D01*
X184695048Y-64707820D01*
X184695047Y-64707820D01*
X184695051Y-64707816D01*
X184791557Y-64518412D01*
X184857246Y-64316243D01*
X184890500Y-64106287D01*
X184890500Y-63893713D01*
X184857246Y-63683757D01*
X184791557Y-63481588D01*
X184695051Y-63292184D01*
X184695049Y-63292181D01*
X184695048Y-63292179D01*
X184570109Y-63120213D01*
X184419786Y-62969890D01*
X184247820Y-62844951D01*
X184058414Y-62748444D01*
X184058413Y-62748443D01*
X184058412Y-62748443D01*
X183856243Y-62682754D01*
X183856241Y-62682753D01*
X183856240Y-62682753D01*
X183694957Y-62657208D01*
X183646287Y-62649500D01*
X183433713Y-62649500D01*
X183385042Y-62657208D01*
X183223760Y-62682753D01*
X183021585Y-62748444D01*
X182832179Y-62844951D01*
X182660213Y-62969890D01*
X182509890Y-63120213D01*
X182384949Y-63292182D01*
X182380484Y-63300946D01*
X182332509Y-63351742D01*
X182264688Y-63368536D01*
X182198553Y-63345998D01*
X182159516Y-63300946D01*
X182155050Y-63292182D01*
X182030109Y-63120213D01*
X181879786Y-62969890D01*
X181707820Y-62844951D01*
X181518414Y-62748444D01*
X181518413Y-62748443D01*
X181518412Y-62748443D01*
X181316243Y-62682754D01*
X181316241Y-62682753D01*
X181316240Y-62682753D01*
X181154957Y-62657208D01*
X181106287Y-62649500D01*
X180893713Y-62649500D01*
X180845042Y-62657208D01*
X180683760Y-62682753D01*
X180481585Y-62748444D01*
X180292179Y-62844951D01*
X180120213Y-62969890D01*
X179969890Y-63120213D01*
X179844949Y-63292182D01*
X179840484Y-63300946D01*
X179792509Y-63351742D01*
X179724688Y-63368536D01*
X179658553Y-63345998D01*
X179619516Y-63300946D01*
X179615050Y-63292182D01*
X179490109Y-63120213D01*
X179339786Y-62969890D01*
X179167820Y-62844951D01*
X178978414Y-62748444D01*
X178978413Y-62748443D01*
X178978412Y-62748443D01*
X178776243Y-62682754D01*
X178776241Y-62682753D01*
X178776240Y-62682753D01*
X178614957Y-62657208D01*
X178566287Y-62649500D01*
X178353713Y-62649500D01*
X178305042Y-62657208D01*
X178143760Y-62682753D01*
X177941585Y-62748444D01*
X177752179Y-62844951D01*
X177580213Y-62969890D01*
X177429890Y-63120213D01*
X177304949Y-63292182D01*
X177300484Y-63300946D01*
X177252509Y-63351742D01*
X177184688Y-63368536D01*
X177118553Y-63345998D01*
X177079516Y-63300946D01*
X177075050Y-63292182D01*
X176950109Y-63120213D01*
X176799786Y-62969890D01*
X176627820Y-62844951D01*
X176438414Y-62748444D01*
X176438413Y-62748443D01*
X176438412Y-62748443D01*
X176236243Y-62682754D01*
X176236241Y-62682753D01*
X176236240Y-62682753D01*
X176074957Y-62657208D01*
X176026287Y-62649500D01*
X175813713Y-62649500D01*
X175765042Y-62657208D01*
X175603760Y-62682753D01*
X175401585Y-62748444D01*
X175212179Y-62844951D01*
X175040215Y-62969889D01*
X174926285Y-63083819D01*
X174864962Y-63117303D01*
X174795270Y-63112319D01*
X174739337Y-63070447D01*
X174722422Y-63039470D01*
X174673354Y-62907913D01*
X174673350Y-62907906D01*
X174587190Y-62792812D01*
X174587187Y-62792809D01*
X174472093Y-62706649D01*
X174472086Y-62706645D01*
X174337379Y-62656403D01*
X174337372Y-62656401D01*
X174277844Y-62650000D01*
X173630000Y-62650000D01*
X173630000Y-63566988D01*
X173572993Y-63534075D01*
X173445826Y-63500000D01*
X173314174Y-63500000D01*
X173187007Y-63534075D01*
X173130000Y-63566988D01*
X173130000Y-62650000D01*
X172482155Y-62650000D01*
X172422627Y-62656401D01*
X172422620Y-62656403D01*
X172287913Y-62706645D01*
X172287906Y-62706649D01*
X172172812Y-62792809D01*
X172172809Y-62792812D01*
X172086649Y-62907906D01*
X172086645Y-62907913D01*
X172036403Y-63042620D01*
X172036401Y-63042627D01*
X172030000Y-63102155D01*
X172030000Y-63750000D01*
X172946988Y-63750000D01*
X172914075Y-63807007D01*
X172880000Y-63934174D01*
X172880000Y-64065826D01*
X172914075Y-64192993D01*
X172946988Y-64250000D01*
X172030000Y-64250000D01*
X172030000Y-64897844D01*
X172036401Y-64957372D01*
X172036403Y-64957379D01*
X172086645Y-65092086D01*
X172086649Y-65092093D01*
X172172809Y-65207187D01*
X172172812Y-65207190D01*
X172287906Y-65293350D01*
X172287913Y-65293354D01*
X172422620Y-65343596D01*
X172422627Y-65343598D01*
X172482155Y-65349999D01*
X172482172Y-65350000D01*
X173130000Y-65350000D01*
X173130000Y-64433012D01*
X173187007Y-64465925D01*
X173314174Y-64500000D01*
X173445826Y-64500000D01*
X173572993Y-64465925D01*
X173630000Y-64433012D01*
X173630000Y-65350000D01*
X174046483Y-65350000D01*
X174113522Y-65369685D01*
X174159277Y-65422489D01*
X174169221Y-65491647D01*
X174140196Y-65555203D01*
X174134164Y-65561681D01*
X172740666Y-66955181D01*
X172679343Y-66988666D01*
X172652985Y-66991500D01*
X132900666Y-66991500D01*
X132705838Y-67030253D01*
X132705838Y-67030254D01*
X132705835Y-67030255D01*
X132705831Y-67030256D01*
X132629809Y-67061745D01*
X132629807Y-67061745D01*
X132522294Y-67106278D01*
X132357123Y-67216642D01*
X132357115Y-67216648D01*
X129491585Y-70082181D01*
X129357119Y-70216647D01*
X129286882Y-70286884D01*
X129216645Y-70357120D01*
X129106282Y-70522289D01*
X129106277Y-70522298D01*
X129030256Y-70705830D01*
X129030254Y-70705838D01*
X128991500Y-70900666D01*
X128500500Y-70900666D01*
X128500500Y-64003750D01*
X128500726Y-63996263D01*
X128518271Y-63706205D01*
X128520076Y-63691340D01*
X128555141Y-63500000D01*
X128571780Y-63409197D01*
X128575364Y-63394663D01*
X128660696Y-63120822D01*
X128666003Y-63106830D01*
X128668107Y-63102155D01*
X128783731Y-62845249D01*
X128790676Y-62832016D01*
X128939080Y-62586526D01*
X128947567Y-62574230D01*
X129124480Y-62348417D01*
X129134395Y-62337226D01*
X129337226Y-62134395D01*
X129348417Y-62124480D01*
X129574230Y-61947567D01*
X129586526Y-61939080D01*
X129832016Y-61790676D01*
X129845249Y-61783731D01*
X130106841Y-61665998D01*
X130120822Y-61660696D01*
X130394668Y-61575362D01*
X130409197Y-61571780D01*
X130691344Y-61520075D01*
X130706201Y-61518271D01*
X130996264Y-61500726D01*
X131003751Y-61500500D01*
X131065892Y-61500500D01*
X194934108Y-61500500D01*
X194996249Y-61500500D01*
X195003736Y-61500726D01*
G37*
G04 #@! TD.AperFunction*
M02*
