%TF.GenerationSoftware,KiCad,Pcbnew,9.0.1*%
%TF.CreationDate,2025-07-26T23:55:01-07:00*%
%TF.ProjectId,capstone_paul_ngo,63617073-746f-46e6-955f-7061756c5f6e,rev?*%
%TF.SameCoordinates,Original*%
%TF.FileFunction,Drillmap*%
%TF.FilePolarity,Positive*%
%FSLAX45Y45*%
G04 Gerber Fmt 4.5, Leading zero omitted, Abs format (unit mm)*
G04 Created by KiCad (PCBNEW 9.0.1) date 2025-07-26 23:55:01*
%MOMM*%
%LPD*%
G01*
G04 APERTURE LIST*
%ADD10C,0.050000*%
%ADD11C,0.200000*%
%ADD12C,0.100000*%
G04 APERTURE END LIST*
D10*
X12800000Y-6400000D02*
X12800000Y-13000000D01*
X19500000Y-6100000D02*
X13100000Y-6100000D01*
X13100000Y-13300000D02*
G75*
G02*
X12800000Y-13000000I0J300000D01*
G01*
X13100000Y-13300000D02*
X19500000Y-13300000D01*
X12800000Y-6400000D02*
G75*
G02*
X13100000Y-6100000I300000J0D01*
G01*
X19500000Y-6100000D02*
G75*
G02*
X19800000Y-6400000I0J-300000D01*
G01*
X19800000Y-13000000D02*
X19800000Y-6400000D01*
X19800000Y-13000000D02*
G75*
G02*
X19500000Y-13300000I-300000J0D01*
G01*
D11*
D12*
X16360000Y-9060000D02*
X16440000Y-9140000D01*
X16440000Y-9060000D02*
X16360000Y-9140000D01*
X16360000Y-9822000D02*
X16440000Y-9902000D01*
X16440000Y-9822000D02*
X16360000Y-9902000D01*
X17060000Y-9460000D02*
X17140000Y-9540000D01*
X17140000Y-9460000D02*
X17060000Y-9540000D01*
X17060000Y-10222000D02*
X17140000Y-10302000D01*
X17140000Y-10222000D02*
X17060000Y-10302000D01*
X16291000Y-8300000D02*
G75*
G02*
X16201000Y-8300000I-45000J0D01*
G01*
X16201000Y-8300000D02*
G75*
G02*
X16291000Y-8300000I45000J0D01*
G01*
X16545000Y-8300000D02*
G75*
G02*
X16455000Y-8300000I-45000J0D01*
G01*
X16455000Y-8300000D02*
G75*
G02*
X16545000Y-8300000I45000J0D01*
G01*
X17091000Y-8300000D02*
G75*
G02*
X17001000Y-8300000I-45000J0D01*
G01*
X17001000Y-8300000D02*
G75*
G02*
X17091000Y-8300000I45000J0D01*
G01*
X17345000Y-8300000D02*
G75*
G02*
X17255000Y-8300000I-45000J0D01*
G01*
X17255000Y-8300000D02*
G75*
G02*
X17345000Y-8300000I45000J0D01*
G01*
X14038000Y-9247000D02*
X14038000Y-9347000D01*
X13988000Y-9297000D02*
X14088000Y-9297000D01*
X14038000Y-9501000D02*
X14038000Y-9601000D01*
X13988000Y-9551000D02*
X14088000Y-9551000D01*
X14038000Y-9755000D02*
X14038000Y-9855000D01*
X13988000Y-9805000D02*
X14088000Y-9805000D01*
X14038000Y-10009000D02*
X14038000Y-10109000D01*
X13988000Y-10059000D02*
X14088000Y-10059000D01*
X14038000Y-10263000D02*
X14038000Y-10363000D01*
X13988000Y-10313000D02*
X14088000Y-10313000D01*
X14038000Y-10517000D02*
X14038000Y-10617000D01*
X13988000Y-10567000D02*
X14088000Y-10567000D01*
X14038000Y-10771000D02*
X14038000Y-10871000D01*
X13988000Y-10821000D02*
X14088000Y-10821000D01*
X14038000Y-11025000D02*
X14038000Y-11125000D01*
X13988000Y-11075000D02*
X14088000Y-11075000D01*
X14038000Y-11279000D02*
X14038000Y-11379000D01*
X13988000Y-11329000D02*
X14088000Y-11329000D01*
X14038000Y-11533000D02*
X14038000Y-11633000D01*
X13988000Y-11583000D02*
X14088000Y-11583000D01*
X14038000Y-11787000D02*
X14038000Y-11887000D01*
X13988000Y-11837000D02*
X14088000Y-11837000D01*
X14038000Y-12041000D02*
X14038000Y-12141000D01*
X13988000Y-12091000D02*
X14088000Y-12091000D01*
X15562000Y-9247000D02*
X15562000Y-9347000D01*
X15512000Y-9297000D02*
X15612000Y-9297000D01*
X15562000Y-9501000D02*
X15562000Y-9601000D01*
X15512000Y-9551000D02*
X15612000Y-9551000D01*
X15562000Y-9755000D02*
X15562000Y-9855000D01*
X15512000Y-9805000D02*
X15612000Y-9805000D01*
X15562000Y-10009000D02*
X15562000Y-10109000D01*
X15512000Y-10059000D02*
X15612000Y-10059000D01*
X15562000Y-10263000D02*
X15562000Y-10363000D01*
X15512000Y-10313000D02*
X15612000Y-10313000D01*
X15562000Y-10517000D02*
X15562000Y-10617000D01*
X15512000Y-10567000D02*
X15612000Y-10567000D01*
X15562000Y-10771000D02*
X15562000Y-10871000D01*
X15512000Y-10821000D02*
X15612000Y-10821000D01*
X15562000Y-11025000D02*
X15562000Y-11125000D01*
X15512000Y-11075000D02*
X15612000Y-11075000D01*
X15562000Y-11279000D02*
X15562000Y-11379000D01*
X15512000Y-11329000D02*
X15612000Y-11329000D01*
X15562000Y-11533000D02*
X15562000Y-11633000D01*
X15512000Y-11583000D02*
X15612000Y-11583000D01*
X15562000Y-11787000D02*
X15562000Y-11887000D01*
X15512000Y-11837000D02*
X15612000Y-11837000D01*
X15562000Y-12041000D02*
X15562000Y-12141000D01*
X15512000Y-12091000D02*
X15612000Y-12091000D01*
X17338000Y-6350000D02*
X17338000Y-6450000D01*
X17288000Y-6400000D02*
X17388000Y-6400000D01*
X17592000Y-6350000D02*
X17592000Y-6450000D01*
X17542000Y-6400000D02*
X17642000Y-6400000D01*
X17846000Y-6350000D02*
X17846000Y-6450000D01*
X17796000Y-6400000D02*
X17896000Y-6400000D01*
X18100000Y-6350000D02*
X18100000Y-6450000D01*
X18050000Y-6400000D02*
X18150000Y-6400000D01*
X18354000Y-6350000D02*
X18354000Y-6450000D01*
X18304000Y-6400000D02*
X18404000Y-6400000D01*
D11*
X13058277Y-13613984D02*
X13058277Y-13413984D01*
X13058277Y-13413984D02*
X13105896Y-13413984D01*
X13105896Y-13413984D02*
X13134467Y-13423508D01*
X13134467Y-13423508D02*
X13153515Y-13442555D01*
X13153515Y-13442555D02*
X13163039Y-13461603D01*
X13163039Y-13461603D02*
X13172562Y-13499698D01*
X13172562Y-13499698D02*
X13172562Y-13528269D01*
X13172562Y-13528269D02*
X13163039Y-13566365D01*
X13163039Y-13566365D02*
X13153515Y-13585412D01*
X13153515Y-13585412D02*
X13134467Y-13604460D01*
X13134467Y-13604460D02*
X13105896Y-13613984D01*
X13105896Y-13613984D02*
X13058277Y-13613984D01*
X13258277Y-13613984D02*
X13258277Y-13480650D01*
X13258277Y-13518746D02*
X13267801Y-13499698D01*
X13267801Y-13499698D02*
X13277324Y-13490174D01*
X13277324Y-13490174D02*
X13296372Y-13480650D01*
X13296372Y-13480650D02*
X13315420Y-13480650D01*
X13382086Y-13613984D02*
X13382086Y-13480650D01*
X13382086Y-13413984D02*
X13372562Y-13423508D01*
X13372562Y-13423508D02*
X13382086Y-13433031D01*
X13382086Y-13433031D02*
X13391610Y-13423508D01*
X13391610Y-13423508D02*
X13382086Y-13413984D01*
X13382086Y-13413984D02*
X13382086Y-13433031D01*
X13505896Y-13613984D02*
X13486848Y-13604460D01*
X13486848Y-13604460D02*
X13477324Y-13585412D01*
X13477324Y-13585412D02*
X13477324Y-13413984D01*
X13610658Y-13613984D02*
X13591610Y-13604460D01*
X13591610Y-13604460D02*
X13582086Y-13585412D01*
X13582086Y-13585412D02*
X13582086Y-13413984D01*
X13839229Y-13613984D02*
X13839229Y-13413984D01*
X13839229Y-13413984D02*
X13905896Y-13556841D01*
X13905896Y-13556841D02*
X13972562Y-13413984D01*
X13972562Y-13413984D02*
X13972562Y-13613984D01*
X14153515Y-13613984D02*
X14153515Y-13509222D01*
X14153515Y-13509222D02*
X14143991Y-13490174D01*
X14143991Y-13490174D02*
X14124943Y-13480650D01*
X14124943Y-13480650D02*
X14086848Y-13480650D01*
X14086848Y-13480650D02*
X14067801Y-13490174D01*
X14153515Y-13604460D02*
X14134467Y-13613984D01*
X14134467Y-13613984D02*
X14086848Y-13613984D01*
X14086848Y-13613984D02*
X14067801Y-13604460D01*
X14067801Y-13604460D02*
X14058277Y-13585412D01*
X14058277Y-13585412D02*
X14058277Y-13566365D01*
X14058277Y-13566365D02*
X14067801Y-13547317D01*
X14067801Y-13547317D02*
X14086848Y-13537793D01*
X14086848Y-13537793D02*
X14134467Y-13537793D01*
X14134467Y-13537793D02*
X14153515Y-13528269D01*
X14248753Y-13480650D02*
X14248753Y-13680650D01*
X14248753Y-13490174D02*
X14267801Y-13480650D01*
X14267801Y-13480650D02*
X14305896Y-13480650D01*
X14305896Y-13480650D02*
X14324943Y-13490174D01*
X14324943Y-13490174D02*
X14334467Y-13499698D01*
X14334467Y-13499698D02*
X14343991Y-13518746D01*
X14343991Y-13518746D02*
X14343991Y-13575888D01*
X14343991Y-13575888D02*
X14334467Y-13594936D01*
X14334467Y-13594936D02*
X14324943Y-13604460D01*
X14324943Y-13604460D02*
X14305896Y-13613984D01*
X14305896Y-13613984D02*
X14267801Y-13613984D01*
X14267801Y-13613984D02*
X14248753Y-13604460D01*
X14429705Y-13594936D02*
X14439229Y-13604460D01*
X14439229Y-13604460D02*
X14429705Y-13613984D01*
X14429705Y-13613984D02*
X14420182Y-13604460D01*
X14420182Y-13604460D02*
X14429705Y-13594936D01*
X14429705Y-13594936D02*
X14429705Y-13613984D01*
X14429705Y-13490174D02*
X14439229Y-13499698D01*
X14439229Y-13499698D02*
X14429705Y-13509222D01*
X14429705Y-13509222D02*
X14420182Y-13499698D01*
X14420182Y-13499698D02*
X14429705Y-13490174D01*
X14429705Y-13490174D02*
X14429705Y-13509222D01*
D12*
X12717500Y-13902500D02*
X12797500Y-13982500D01*
X12797500Y-13902500D02*
X12717500Y-13982500D01*
D11*
X13096372Y-13833984D02*
X13115420Y-13833984D01*
X13115420Y-13833984D02*
X13134467Y-13843508D01*
X13134467Y-13843508D02*
X13143991Y-13853031D01*
X13143991Y-13853031D02*
X13153515Y-13872079D01*
X13153515Y-13872079D02*
X13163039Y-13910174D01*
X13163039Y-13910174D02*
X13163039Y-13957793D01*
X13163039Y-13957793D02*
X13153515Y-13995888D01*
X13153515Y-13995888D02*
X13143991Y-14014936D01*
X13143991Y-14014936D02*
X13134467Y-14024460D01*
X13134467Y-14024460D02*
X13115420Y-14033984D01*
X13115420Y-14033984D02*
X13096372Y-14033984D01*
X13096372Y-14033984D02*
X13077324Y-14024460D01*
X13077324Y-14024460D02*
X13067801Y-14014936D01*
X13067801Y-14014936D02*
X13058277Y-13995888D01*
X13058277Y-13995888D02*
X13048753Y-13957793D01*
X13048753Y-13957793D02*
X13048753Y-13910174D01*
X13048753Y-13910174D02*
X13058277Y-13872079D01*
X13058277Y-13872079D02*
X13067801Y-13853031D01*
X13067801Y-13853031D02*
X13077324Y-13843508D01*
X13077324Y-13843508D02*
X13096372Y-13833984D01*
X13248753Y-14014936D02*
X13258277Y-14024460D01*
X13258277Y-14024460D02*
X13248753Y-14033984D01*
X13248753Y-14033984D02*
X13239229Y-14024460D01*
X13239229Y-14024460D02*
X13248753Y-14014936D01*
X13248753Y-14014936D02*
X13248753Y-14033984D01*
X13372562Y-13919698D02*
X13353515Y-13910174D01*
X13353515Y-13910174D02*
X13343991Y-13900650D01*
X13343991Y-13900650D02*
X13334467Y-13881603D01*
X13334467Y-13881603D02*
X13334467Y-13872079D01*
X13334467Y-13872079D02*
X13343991Y-13853031D01*
X13343991Y-13853031D02*
X13353515Y-13843508D01*
X13353515Y-13843508D02*
X13372562Y-13833984D01*
X13372562Y-13833984D02*
X13410658Y-13833984D01*
X13410658Y-13833984D02*
X13429705Y-13843508D01*
X13429705Y-13843508D02*
X13439229Y-13853031D01*
X13439229Y-13853031D02*
X13448753Y-13872079D01*
X13448753Y-13872079D02*
X13448753Y-13881603D01*
X13448753Y-13881603D02*
X13439229Y-13900650D01*
X13439229Y-13900650D02*
X13429705Y-13910174D01*
X13429705Y-13910174D02*
X13410658Y-13919698D01*
X13410658Y-13919698D02*
X13372562Y-13919698D01*
X13372562Y-13919698D02*
X13353515Y-13929222D01*
X13353515Y-13929222D02*
X13343991Y-13938746D01*
X13343991Y-13938746D02*
X13334467Y-13957793D01*
X13334467Y-13957793D02*
X13334467Y-13995888D01*
X13334467Y-13995888D02*
X13343991Y-14014936D01*
X13343991Y-14014936D02*
X13353515Y-14024460D01*
X13353515Y-14024460D02*
X13372562Y-14033984D01*
X13372562Y-14033984D02*
X13410658Y-14033984D01*
X13410658Y-14033984D02*
X13429705Y-14024460D01*
X13429705Y-14024460D02*
X13439229Y-14014936D01*
X13439229Y-14014936D02*
X13448753Y-13995888D01*
X13448753Y-13995888D02*
X13448753Y-13957793D01*
X13448753Y-13957793D02*
X13439229Y-13938746D01*
X13439229Y-13938746D02*
X13429705Y-13929222D01*
X13429705Y-13929222D02*
X13410658Y-13919698D01*
X13572562Y-13833984D02*
X13591610Y-13833984D01*
X13591610Y-13833984D02*
X13610658Y-13843508D01*
X13610658Y-13843508D02*
X13620182Y-13853031D01*
X13620182Y-13853031D02*
X13629705Y-13872079D01*
X13629705Y-13872079D02*
X13639229Y-13910174D01*
X13639229Y-13910174D02*
X13639229Y-13957793D01*
X13639229Y-13957793D02*
X13629705Y-13995888D01*
X13629705Y-13995888D02*
X13620182Y-14014936D01*
X13620182Y-14014936D02*
X13610658Y-14024460D01*
X13610658Y-14024460D02*
X13591610Y-14033984D01*
X13591610Y-14033984D02*
X13572562Y-14033984D01*
X13572562Y-14033984D02*
X13553515Y-14024460D01*
X13553515Y-14024460D02*
X13543991Y-14014936D01*
X13543991Y-14014936D02*
X13534467Y-13995888D01*
X13534467Y-13995888D02*
X13524943Y-13957793D01*
X13524943Y-13957793D02*
X13524943Y-13910174D01*
X13524943Y-13910174D02*
X13534467Y-13872079D01*
X13534467Y-13872079D02*
X13543991Y-13853031D01*
X13543991Y-13853031D02*
X13553515Y-13843508D01*
X13553515Y-13843508D02*
X13572562Y-13833984D01*
X13763039Y-13833984D02*
X13782086Y-13833984D01*
X13782086Y-13833984D02*
X13801134Y-13843508D01*
X13801134Y-13843508D02*
X13810658Y-13853031D01*
X13810658Y-13853031D02*
X13820182Y-13872079D01*
X13820182Y-13872079D02*
X13829705Y-13910174D01*
X13829705Y-13910174D02*
X13829705Y-13957793D01*
X13829705Y-13957793D02*
X13820182Y-13995888D01*
X13820182Y-13995888D02*
X13810658Y-14014936D01*
X13810658Y-14014936D02*
X13801134Y-14024460D01*
X13801134Y-14024460D02*
X13782086Y-14033984D01*
X13782086Y-14033984D02*
X13763039Y-14033984D01*
X13763039Y-14033984D02*
X13743991Y-14024460D01*
X13743991Y-14024460D02*
X13734467Y-14014936D01*
X13734467Y-14014936D02*
X13724943Y-13995888D01*
X13724943Y-13995888D02*
X13715420Y-13957793D01*
X13715420Y-13957793D02*
X13715420Y-13910174D01*
X13715420Y-13910174D02*
X13724943Y-13872079D01*
X13724943Y-13872079D02*
X13734467Y-13853031D01*
X13734467Y-13853031D02*
X13743991Y-13843508D01*
X13743991Y-13843508D02*
X13763039Y-13833984D01*
X13915420Y-14033984D02*
X13915420Y-13900650D01*
X13915420Y-13919698D02*
X13924943Y-13910174D01*
X13924943Y-13910174D02*
X13943991Y-13900650D01*
X13943991Y-13900650D02*
X13972563Y-13900650D01*
X13972563Y-13900650D02*
X13991610Y-13910174D01*
X13991610Y-13910174D02*
X14001134Y-13929222D01*
X14001134Y-13929222D02*
X14001134Y-14033984D01*
X14001134Y-13929222D02*
X14010658Y-13910174D01*
X14010658Y-13910174D02*
X14029705Y-13900650D01*
X14029705Y-13900650D02*
X14058277Y-13900650D01*
X14058277Y-13900650D02*
X14077324Y-13910174D01*
X14077324Y-13910174D02*
X14086848Y-13929222D01*
X14086848Y-13929222D02*
X14086848Y-14033984D01*
X14182086Y-14033984D02*
X14182086Y-13900650D01*
X14182086Y-13919698D02*
X14191610Y-13910174D01*
X14191610Y-13910174D02*
X14210658Y-13900650D01*
X14210658Y-13900650D02*
X14239229Y-13900650D01*
X14239229Y-13900650D02*
X14258277Y-13910174D01*
X14258277Y-13910174D02*
X14267801Y-13929222D01*
X14267801Y-13929222D02*
X14267801Y-14033984D01*
X14267801Y-13929222D02*
X14277324Y-13910174D01*
X14277324Y-13910174D02*
X14296372Y-13900650D01*
X14296372Y-13900650D02*
X14324943Y-13900650D01*
X14324943Y-13900650D02*
X14343991Y-13910174D01*
X14343991Y-13910174D02*
X14353515Y-13929222D01*
X14353515Y-13929222D02*
X14353515Y-14033984D01*
X14743991Y-13824460D02*
X14572563Y-14081603D01*
X15001134Y-13833984D02*
X15020182Y-13833984D01*
X15020182Y-13833984D02*
X15039229Y-13843508D01*
X15039229Y-13843508D02*
X15048753Y-13853031D01*
X15048753Y-13853031D02*
X15058277Y-13872079D01*
X15058277Y-13872079D02*
X15067801Y-13910174D01*
X15067801Y-13910174D02*
X15067801Y-13957793D01*
X15067801Y-13957793D02*
X15058277Y-13995888D01*
X15058277Y-13995888D02*
X15048753Y-14014936D01*
X15048753Y-14014936D02*
X15039229Y-14024460D01*
X15039229Y-14024460D02*
X15020182Y-14033984D01*
X15020182Y-14033984D02*
X15001134Y-14033984D01*
X15001134Y-14033984D02*
X14982086Y-14024460D01*
X14982086Y-14024460D02*
X14972563Y-14014936D01*
X14972563Y-14014936D02*
X14963039Y-13995888D01*
X14963039Y-13995888D02*
X14953515Y-13957793D01*
X14953515Y-13957793D02*
X14953515Y-13910174D01*
X14953515Y-13910174D02*
X14963039Y-13872079D01*
X14963039Y-13872079D02*
X14972563Y-13853031D01*
X14972563Y-13853031D02*
X14982086Y-13843508D01*
X14982086Y-13843508D02*
X15001134Y-13833984D01*
X15153515Y-14014936D02*
X15163039Y-14024460D01*
X15163039Y-14024460D02*
X15153515Y-14033984D01*
X15153515Y-14033984D02*
X15143991Y-14024460D01*
X15143991Y-14024460D02*
X15153515Y-14014936D01*
X15153515Y-14014936D02*
X15153515Y-14033984D01*
X15286848Y-13833984D02*
X15305896Y-13833984D01*
X15305896Y-13833984D02*
X15324944Y-13843508D01*
X15324944Y-13843508D02*
X15334467Y-13853031D01*
X15334467Y-13853031D02*
X15343991Y-13872079D01*
X15343991Y-13872079D02*
X15353515Y-13910174D01*
X15353515Y-13910174D02*
X15353515Y-13957793D01*
X15353515Y-13957793D02*
X15343991Y-13995888D01*
X15343991Y-13995888D02*
X15334467Y-14014936D01*
X15334467Y-14014936D02*
X15324944Y-14024460D01*
X15324944Y-14024460D02*
X15305896Y-14033984D01*
X15305896Y-14033984D02*
X15286848Y-14033984D01*
X15286848Y-14033984D02*
X15267801Y-14024460D01*
X15267801Y-14024460D02*
X15258277Y-14014936D01*
X15258277Y-14014936D02*
X15248753Y-13995888D01*
X15248753Y-13995888D02*
X15239229Y-13957793D01*
X15239229Y-13957793D02*
X15239229Y-13910174D01*
X15239229Y-13910174D02*
X15248753Y-13872079D01*
X15248753Y-13872079D02*
X15258277Y-13853031D01*
X15258277Y-13853031D02*
X15267801Y-13843508D01*
X15267801Y-13843508D02*
X15286848Y-13833984D01*
X15420182Y-13833984D02*
X15543991Y-13833984D01*
X15543991Y-13833984D02*
X15477325Y-13910174D01*
X15477325Y-13910174D02*
X15505896Y-13910174D01*
X15505896Y-13910174D02*
X15524944Y-13919698D01*
X15524944Y-13919698D02*
X15534467Y-13929222D01*
X15534467Y-13929222D02*
X15543991Y-13948269D01*
X15543991Y-13948269D02*
X15543991Y-13995888D01*
X15543991Y-13995888D02*
X15534467Y-14014936D01*
X15534467Y-14014936D02*
X15524944Y-14024460D01*
X15524944Y-14024460D02*
X15505896Y-14033984D01*
X15505896Y-14033984D02*
X15448753Y-14033984D01*
X15448753Y-14033984D02*
X15429706Y-14024460D01*
X15429706Y-14024460D02*
X15420182Y-14014936D01*
X15734467Y-14033984D02*
X15620182Y-14033984D01*
X15677325Y-14033984D02*
X15677325Y-13833984D01*
X15677325Y-13833984D02*
X15658277Y-13862555D01*
X15658277Y-13862555D02*
X15639229Y-13881603D01*
X15639229Y-13881603D02*
X15620182Y-13891127D01*
X15915420Y-13833984D02*
X15820182Y-13833984D01*
X15820182Y-13833984D02*
X15810658Y-13929222D01*
X15810658Y-13929222D02*
X15820182Y-13919698D01*
X15820182Y-13919698D02*
X15839229Y-13910174D01*
X15839229Y-13910174D02*
X15886848Y-13910174D01*
X15886848Y-13910174D02*
X15905896Y-13919698D01*
X15905896Y-13919698D02*
X15915420Y-13929222D01*
X15915420Y-13929222D02*
X15924944Y-13948269D01*
X15924944Y-13948269D02*
X15924944Y-13995888D01*
X15924944Y-13995888D02*
X15915420Y-14014936D01*
X15915420Y-14014936D02*
X15905896Y-14024460D01*
X15905896Y-14024460D02*
X15886848Y-14033984D01*
X15886848Y-14033984D02*
X15839229Y-14033984D01*
X15839229Y-14033984D02*
X15820182Y-14024460D01*
X15820182Y-14024460D02*
X15810658Y-14014936D01*
X16001134Y-13833984D02*
X16001134Y-13872079D01*
X16077325Y-13833984D02*
X16077325Y-13872079D01*
X16372563Y-14110174D02*
X16363039Y-14100650D01*
X16363039Y-14100650D02*
X16343991Y-14072079D01*
X16343991Y-14072079D02*
X16334468Y-14053031D01*
X16334468Y-14053031D02*
X16324944Y-14024460D01*
X16324944Y-14024460D02*
X16315420Y-13976841D01*
X16315420Y-13976841D02*
X16315420Y-13938746D01*
X16315420Y-13938746D02*
X16324944Y-13891127D01*
X16324944Y-13891127D02*
X16334468Y-13862555D01*
X16334468Y-13862555D02*
X16343991Y-13843508D01*
X16343991Y-13843508D02*
X16363039Y-13814936D01*
X16363039Y-13814936D02*
X16372563Y-13805412D01*
X16534468Y-13900650D02*
X16534468Y-14033984D01*
X16486848Y-13824460D02*
X16439229Y-13967317D01*
X16439229Y-13967317D02*
X16563039Y-13967317D01*
X16791611Y-14033984D02*
X16791611Y-13833984D01*
X16877325Y-14033984D02*
X16877325Y-13929222D01*
X16877325Y-13929222D02*
X16867801Y-13910174D01*
X16867801Y-13910174D02*
X16848753Y-13900650D01*
X16848753Y-13900650D02*
X16820182Y-13900650D01*
X16820182Y-13900650D02*
X16801134Y-13910174D01*
X16801134Y-13910174D02*
X16791611Y-13919698D01*
X17001134Y-14033984D02*
X16982087Y-14024460D01*
X16982087Y-14024460D02*
X16972563Y-14014936D01*
X16972563Y-14014936D02*
X16963039Y-13995888D01*
X16963039Y-13995888D02*
X16963039Y-13938746D01*
X16963039Y-13938746D02*
X16972563Y-13919698D01*
X16972563Y-13919698D02*
X16982087Y-13910174D01*
X16982087Y-13910174D02*
X17001134Y-13900650D01*
X17001134Y-13900650D02*
X17029706Y-13900650D01*
X17029706Y-13900650D02*
X17048753Y-13910174D01*
X17048753Y-13910174D02*
X17058277Y-13919698D01*
X17058277Y-13919698D02*
X17067801Y-13938746D01*
X17067801Y-13938746D02*
X17067801Y-13995888D01*
X17067801Y-13995888D02*
X17058277Y-14014936D01*
X17058277Y-14014936D02*
X17048753Y-14024460D01*
X17048753Y-14024460D02*
X17029706Y-14033984D01*
X17029706Y-14033984D02*
X17001134Y-14033984D01*
X17182087Y-14033984D02*
X17163039Y-14024460D01*
X17163039Y-14024460D02*
X17153515Y-14005412D01*
X17153515Y-14005412D02*
X17153515Y-13833984D01*
X17334468Y-14024460D02*
X17315420Y-14033984D01*
X17315420Y-14033984D02*
X17277325Y-14033984D01*
X17277325Y-14033984D02*
X17258277Y-14024460D01*
X17258277Y-14024460D02*
X17248753Y-14005412D01*
X17248753Y-14005412D02*
X17248753Y-13929222D01*
X17248753Y-13929222D02*
X17258277Y-13910174D01*
X17258277Y-13910174D02*
X17277325Y-13900650D01*
X17277325Y-13900650D02*
X17315420Y-13900650D01*
X17315420Y-13900650D02*
X17334468Y-13910174D01*
X17334468Y-13910174D02*
X17343992Y-13929222D01*
X17343992Y-13929222D02*
X17343992Y-13948269D01*
X17343992Y-13948269D02*
X17248753Y-13967317D01*
X17420182Y-14024460D02*
X17439230Y-14033984D01*
X17439230Y-14033984D02*
X17477325Y-14033984D01*
X17477325Y-14033984D02*
X17496373Y-14024460D01*
X17496373Y-14024460D02*
X17505896Y-14005412D01*
X17505896Y-14005412D02*
X17505896Y-13995888D01*
X17505896Y-13995888D02*
X17496373Y-13976841D01*
X17496373Y-13976841D02*
X17477325Y-13967317D01*
X17477325Y-13967317D02*
X17448753Y-13967317D01*
X17448753Y-13967317D02*
X17429706Y-13957793D01*
X17429706Y-13957793D02*
X17420182Y-13938746D01*
X17420182Y-13938746D02*
X17420182Y-13929222D01*
X17420182Y-13929222D02*
X17429706Y-13910174D01*
X17429706Y-13910174D02*
X17448753Y-13900650D01*
X17448753Y-13900650D02*
X17477325Y-13900650D01*
X17477325Y-13900650D02*
X17496373Y-13910174D01*
X17572563Y-14110174D02*
X17582087Y-14100650D01*
X17582087Y-14100650D02*
X17601134Y-14072079D01*
X17601134Y-14072079D02*
X17610658Y-14053031D01*
X17610658Y-14053031D02*
X17620182Y-14024460D01*
X17620182Y-14024460D02*
X17629706Y-13976841D01*
X17629706Y-13976841D02*
X17629706Y-13938746D01*
X17629706Y-13938746D02*
X17620182Y-13891127D01*
X17620182Y-13891127D02*
X17610658Y-13862555D01*
X17610658Y-13862555D02*
X17601134Y-13843508D01*
X17601134Y-13843508D02*
X17582087Y-13814936D01*
X17582087Y-13814936D02*
X17572563Y-13805412D01*
D12*
X12797500Y-14206500D02*
G75*
G02*
X12707500Y-14206500I-45000J0D01*
G01*
X12707500Y-14206500D02*
G75*
G02*
X12797500Y-14206500I45000J0D01*
G01*
D11*
X13096372Y-14097984D02*
X13115420Y-14097984D01*
X13115420Y-14097984D02*
X13134467Y-14107508D01*
X13134467Y-14107508D02*
X13143991Y-14117031D01*
X13143991Y-14117031D02*
X13153515Y-14136079D01*
X13153515Y-14136079D02*
X13163039Y-14174174D01*
X13163039Y-14174174D02*
X13163039Y-14221793D01*
X13163039Y-14221793D02*
X13153515Y-14259888D01*
X13153515Y-14259888D02*
X13143991Y-14278936D01*
X13143991Y-14278936D02*
X13134467Y-14288460D01*
X13134467Y-14288460D02*
X13115420Y-14297984D01*
X13115420Y-14297984D02*
X13096372Y-14297984D01*
X13096372Y-14297984D02*
X13077324Y-14288460D01*
X13077324Y-14288460D02*
X13067801Y-14278936D01*
X13067801Y-14278936D02*
X13058277Y-14259888D01*
X13058277Y-14259888D02*
X13048753Y-14221793D01*
X13048753Y-14221793D02*
X13048753Y-14174174D01*
X13048753Y-14174174D02*
X13058277Y-14136079D01*
X13058277Y-14136079D02*
X13067801Y-14117031D01*
X13067801Y-14117031D02*
X13077324Y-14107508D01*
X13077324Y-14107508D02*
X13096372Y-14097984D01*
X13248753Y-14278936D02*
X13258277Y-14288460D01*
X13258277Y-14288460D02*
X13248753Y-14297984D01*
X13248753Y-14297984D02*
X13239229Y-14288460D01*
X13239229Y-14288460D02*
X13248753Y-14278936D01*
X13248753Y-14278936D02*
X13248753Y-14297984D01*
X13353515Y-14297984D02*
X13391610Y-14297984D01*
X13391610Y-14297984D02*
X13410658Y-14288460D01*
X13410658Y-14288460D02*
X13420182Y-14278936D01*
X13420182Y-14278936D02*
X13439229Y-14250365D01*
X13439229Y-14250365D02*
X13448753Y-14212269D01*
X13448753Y-14212269D02*
X13448753Y-14136079D01*
X13448753Y-14136079D02*
X13439229Y-14117031D01*
X13439229Y-14117031D02*
X13429705Y-14107508D01*
X13429705Y-14107508D02*
X13410658Y-14097984D01*
X13410658Y-14097984D02*
X13372562Y-14097984D01*
X13372562Y-14097984D02*
X13353515Y-14107508D01*
X13353515Y-14107508D02*
X13343991Y-14117031D01*
X13343991Y-14117031D02*
X13334467Y-14136079D01*
X13334467Y-14136079D02*
X13334467Y-14183698D01*
X13334467Y-14183698D02*
X13343991Y-14202746D01*
X13343991Y-14202746D02*
X13353515Y-14212269D01*
X13353515Y-14212269D02*
X13372562Y-14221793D01*
X13372562Y-14221793D02*
X13410658Y-14221793D01*
X13410658Y-14221793D02*
X13429705Y-14212269D01*
X13429705Y-14212269D02*
X13439229Y-14202746D01*
X13439229Y-14202746D02*
X13448753Y-14183698D01*
X13572562Y-14097984D02*
X13591610Y-14097984D01*
X13591610Y-14097984D02*
X13610658Y-14107508D01*
X13610658Y-14107508D02*
X13620182Y-14117031D01*
X13620182Y-14117031D02*
X13629705Y-14136079D01*
X13629705Y-14136079D02*
X13639229Y-14174174D01*
X13639229Y-14174174D02*
X13639229Y-14221793D01*
X13639229Y-14221793D02*
X13629705Y-14259888D01*
X13629705Y-14259888D02*
X13620182Y-14278936D01*
X13620182Y-14278936D02*
X13610658Y-14288460D01*
X13610658Y-14288460D02*
X13591610Y-14297984D01*
X13591610Y-14297984D02*
X13572562Y-14297984D01*
X13572562Y-14297984D02*
X13553515Y-14288460D01*
X13553515Y-14288460D02*
X13543991Y-14278936D01*
X13543991Y-14278936D02*
X13534467Y-14259888D01*
X13534467Y-14259888D02*
X13524943Y-14221793D01*
X13524943Y-14221793D02*
X13524943Y-14174174D01*
X13524943Y-14174174D02*
X13534467Y-14136079D01*
X13534467Y-14136079D02*
X13543991Y-14117031D01*
X13543991Y-14117031D02*
X13553515Y-14107508D01*
X13553515Y-14107508D02*
X13572562Y-14097984D01*
X13763039Y-14097984D02*
X13782086Y-14097984D01*
X13782086Y-14097984D02*
X13801134Y-14107508D01*
X13801134Y-14107508D02*
X13810658Y-14117031D01*
X13810658Y-14117031D02*
X13820182Y-14136079D01*
X13820182Y-14136079D02*
X13829705Y-14174174D01*
X13829705Y-14174174D02*
X13829705Y-14221793D01*
X13829705Y-14221793D02*
X13820182Y-14259888D01*
X13820182Y-14259888D02*
X13810658Y-14278936D01*
X13810658Y-14278936D02*
X13801134Y-14288460D01*
X13801134Y-14288460D02*
X13782086Y-14297984D01*
X13782086Y-14297984D02*
X13763039Y-14297984D01*
X13763039Y-14297984D02*
X13743991Y-14288460D01*
X13743991Y-14288460D02*
X13734467Y-14278936D01*
X13734467Y-14278936D02*
X13724943Y-14259888D01*
X13724943Y-14259888D02*
X13715420Y-14221793D01*
X13715420Y-14221793D02*
X13715420Y-14174174D01*
X13715420Y-14174174D02*
X13724943Y-14136079D01*
X13724943Y-14136079D02*
X13734467Y-14117031D01*
X13734467Y-14117031D02*
X13743991Y-14107508D01*
X13743991Y-14107508D02*
X13763039Y-14097984D01*
X13915420Y-14297984D02*
X13915420Y-14164650D01*
X13915420Y-14183698D02*
X13924943Y-14174174D01*
X13924943Y-14174174D02*
X13943991Y-14164650D01*
X13943991Y-14164650D02*
X13972563Y-14164650D01*
X13972563Y-14164650D02*
X13991610Y-14174174D01*
X13991610Y-14174174D02*
X14001134Y-14193222D01*
X14001134Y-14193222D02*
X14001134Y-14297984D01*
X14001134Y-14193222D02*
X14010658Y-14174174D01*
X14010658Y-14174174D02*
X14029705Y-14164650D01*
X14029705Y-14164650D02*
X14058277Y-14164650D01*
X14058277Y-14164650D02*
X14077324Y-14174174D01*
X14077324Y-14174174D02*
X14086848Y-14193222D01*
X14086848Y-14193222D02*
X14086848Y-14297984D01*
X14182086Y-14297984D02*
X14182086Y-14164650D01*
X14182086Y-14183698D02*
X14191610Y-14174174D01*
X14191610Y-14174174D02*
X14210658Y-14164650D01*
X14210658Y-14164650D02*
X14239229Y-14164650D01*
X14239229Y-14164650D02*
X14258277Y-14174174D01*
X14258277Y-14174174D02*
X14267801Y-14193222D01*
X14267801Y-14193222D02*
X14267801Y-14297984D01*
X14267801Y-14193222D02*
X14277324Y-14174174D01*
X14277324Y-14174174D02*
X14296372Y-14164650D01*
X14296372Y-14164650D02*
X14324943Y-14164650D01*
X14324943Y-14164650D02*
X14343991Y-14174174D01*
X14343991Y-14174174D02*
X14353515Y-14193222D01*
X14353515Y-14193222D02*
X14353515Y-14297984D01*
X14743991Y-14088460D02*
X14572563Y-14345603D01*
X15001134Y-14097984D02*
X15020182Y-14097984D01*
X15020182Y-14097984D02*
X15039229Y-14107508D01*
X15039229Y-14107508D02*
X15048753Y-14117031D01*
X15048753Y-14117031D02*
X15058277Y-14136079D01*
X15058277Y-14136079D02*
X15067801Y-14174174D01*
X15067801Y-14174174D02*
X15067801Y-14221793D01*
X15067801Y-14221793D02*
X15058277Y-14259888D01*
X15058277Y-14259888D02*
X15048753Y-14278936D01*
X15048753Y-14278936D02*
X15039229Y-14288460D01*
X15039229Y-14288460D02*
X15020182Y-14297984D01*
X15020182Y-14297984D02*
X15001134Y-14297984D01*
X15001134Y-14297984D02*
X14982086Y-14288460D01*
X14982086Y-14288460D02*
X14972563Y-14278936D01*
X14972563Y-14278936D02*
X14963039Y-14259888D01*
X14963039Y-14259888D02*
X14953515Y-14221793D01*
X14953515Y-14221793D02*
X14953515Y-14174174D01*
X14953515Y-14174174D02*
X14963039Y-14136079D01*
X14963039Y-14136079D02*
X14972563Y-14117031D01*
X14972563Y-14117031D02*
X14982086Y-14107508D01*
X14982086Y-14107508D02*
X15001134Y-14097984D01*
X15153515Y-14278936D02*
X15163039Y-14288460D01*
X15163039Y-14288460D02*
X15153515Y-14297984D01*
X15153515Y-14297984D02*
X15143991Y-14288460D01*
X15143991Y-14288460D02*
X15153515Y-14278936D01*
X15153515Y-14278936D02*
X15153515Y-14297984D01*
X15286848Y-14097984D02*
X15305896Y-14097984D01*
X15305896Y-14097984D02*
X15324944Y-14107508D01*
X15324944Y-14107508D02*
X15334467Y-14117031D01*
X15334467Y-14117031D02*
X15343991Y-14136079D01*
X15343991Y-14136079D02*
X15353515Y-14174174D01*
X15353515Y-14174174D02*
X15353515Y-14221793D01*
X15353515Y-14221793D02*
X15343991Y-14259888D01*
X15343991Y-14259888D02*
X15334467Y-14278936D01*
X15334467Y-14278936D02*
X15324944Y-14288460D01*
X15324944Y-14288460D02*
X15305896Y-14297984D01*
X15305896Y-14297984D02*
X15286848Y-14297984D01*
X15286848Y-14297984D02*
X15267801Y-14288460D01*
X15267801Y-14288460D02*
X15258277Y-14278936D01*
X15258277Y-14278936D02*
X15248753Y-14259888D01*
X15248753Y-14259888D02*
X15239229Y-14221793D01*
X15239229Y-14221793D02*
X15239229Y-14174174D01*
X15239229Y-14174174D02*
X15248753Y-14136079D01*
X15248753Y-14136079D02*
X15258277Y-14117031D01*
X15258277Y-14117031D02*
X15267801Y-14107508D01*
X15267801Y-14107508D02*
X15286848Y-14097984D01*
X15420182Y-14097984D02*
X15543991Y-14097984D01*
X15543991Y-14097984D02*
X15477325Y-14174174D01*
X15477325Y-14174174D02*
X15505896Y-14174174D01*
X15505896Y-14174174D02*
X15524944Y-14183698D01*
X15524944Y-14183698D02*
X15534467Y-14193222D01*
X15534467Y-14193222D02*
X15543991Y-14212269D01*
X15543991Y-14212269D02*
X15543991Y-14259888D01*
X15543991Y-14259888D02*
X15534467Y-14278936D01*
X15534467Y-14278936D02*
X15524944Y-14288460D01*
X15524944Y-14288460D02*
X15505896Y-14297984D01*
X15505896Y-14297984D02*
X15448753Y-14297984D01*
X15448753Y-14297984D02*
X15429706Y-14288460D01*
X15429706Y-14288460D02*
X15420182Y-14278936D01*
X15724944Y-14097984D02*
X15629706Y-14097984D01*
X15629706Y-14097984D02*
X15620182Y-14193222D01*
X15620182Y-14193222D02*
X15629706Y-14183698D01*
X15629706Y-14183698D02*
X15648753Y-14174174D01*
X15648753Y-14174174D02*
X15696372Y-14174174D01*
X15696372Y-14174174D02*
X15715420Y-14183698D01*
X15715420Y-14183698D02*
X15724944Y-14193222D01*
X15724944Y-14193222D02*
X15734467Y-14212269D01*
X15734467Y-14212269D02*
X15734467Y-14259888D01*
X15734467Y-14259888D02*
X15724944Y-14278936D01*
X15724944Y-14278936D02*
X15715420Y-14288460D01*
X15715420Y-14288460D02*
X15696372Y-14297984D01*
X15696372Y-14297984D02*
X15648753Y-14297984D01*
X15648753Y-14297984D02*
X15629706Y-14288460D01*
X15629706Y-14288460D02*
X15620182Y-14278936D01*
X15905896Y-14164650D02*
X15905896Y-14297984D01*
X15858277Y-14088460D02*
X15810658Y-14231317D01*
X15810658Y-14231317D02*
X15934467Y-14231317D01*
X16001134Y-14097984D02*
X16001134Y-14136079D01*
X16077325Y-14097984D02*
X16077325Y-14136079D01*
X16372563Y-14374174D02*
X16363039Y-14364650D01*
X16363039Y-14364650D02*
X16343991Y-14336079D01*
X16343991Y-14336079D02*
X16334468Y-14317031D01*
X16334468Y-14317031D02*
X16324944Y-14288460D01*
X16324944Y-14288460D02*
X16315420Y-14240841D01*
X16315420Y-14240841D02*
X16315420Y-14202746D01*
X16315420Y-14202746D02*
X16324944Y-14155127D01*
X16324944Y-14155127D02*
X16334468Y-14126555D01*
X16334468Y-14126555D02*
X16343991Y-14107508D01*
X16343991Y-14107508D02*
X16363039Y-14078936D01*
X16363039Y-14078936D02*
X16372563Y-14069412D01*
X16534468Y-14164650D02*
X16534468Y-14297984D01*
X16486848Y-14088460D02*
X16439229Y-14231317D01*
X16439229Y-14231317D02*
X16563039Y-14231317D01*
X16791611Y-14297984D02*
X16791611Y-14097984D01*
X16877325Y-14297984D02*
X16877325Y-14193222D01*
X16877325Y-14193222D02*
X16867801Y-14174174D01*
X16867801Y-14174174D02*
X16848753Y-14164650D01*
X16848753Y-14164650D02*
X16820182Y-14164650D01*
X16820182Y-14164650D02*
X16801134Y-14174174D01*
X16801134Y-14174174D02*
X16791611Y-14183698D01*
X17001134Y-14297984D02*
X16982087Y-14288460D01*
X16982087Y-14288460D02*
X16972563Y-14278936D01*
X16972563Y-14278936D02*
X16963039Y-14259888D01*
X16963039Y-14259888D02*
X16963039Y-14202746D01*
X16963039Y-14202746D02*
X16972563Y-14183698D01*
X16972563Y-14183698D02*
X16982087Y-14174174D01*
X16982087Y-14174174D02*
X17001134Y-14164650D01*
X17001134Y-14164650D02*
X17029706Y-14164650D01*
X17029706Y-14164650D02*
X17048753Y-14174174D01*
X17048753Y-14174174D02*
X17058277Y-14183698D01*
X17058277Y-14183698D02*
X17067801Y-14202746D01*
X17067801Y-14202746D02*
X17067801Y-14259888D01*
X17067801Y-14259888D02*
X17058277Y-14278936D01*
X17058277Y-14278936D02*
X17048753Y-14288460D01*
X17048753Y-14288460D02*
X17029706Y-14297984D01*
X17029706Y-14297984D02*
X17001134Y-14297984D01*
X17182087Y-14297984D02*
X17163039Y-14288460D01*
X17163039Y-14288460D02*
X17153515Y-14269412D01*
X17153515Y-14269412D02*
X17153515Y-14097984D01*
X17334468Y-14288460D02*
X17315420Y-14297984D01*
X17315420Y-14297984D02*
X17277325Y-14297984D01*
X17277325Y-14297984D02*
X17258277Y-14288460D01*
X17258277Y-14288460D02*
X17248753Y-14269412D01*
X17248753Y-14269412D02*
X17248753Y-14193222D01*
X17248753Y-14193222D02*
X17258277Y-14174174D01*
X17258277Y-14174174D02*
X17277325Y-14164650D01*
X17277325Y-14164650D02*
X17315420Y-14164650D01*
X17315420Y-14164650D02*
X17334468Y-14174174D01*
X17334468Y-14174174D02*
X17343992Y-14193222D01*
X17343992Y-14193222D02*
X17343992Y-14212269D01*
X17343992Y-14212269D02*
X17248753Y-14231317D01*
X17420182Y-14288460D02*
X17439230Y-14297984D01*
X17439230Y-14297984D02*
X17477325Y-14297984D01*
X17477325Y-14297984D02*
X17496373Y-14288460D01*
X17496373Y-14288460D02*
X17505896Y-14269412D01*
X17505896Y-14269412D02*
X17505896Y-14259888D01*
X17505896Y-14259888D02*
X17496373Y-14240841D01*
X17496373Y-14240841D02*
X17477325Y-14231317D01*
X17477325Y-14231317D02*
X17448753Y-14231317D01*
X17448753Y-14231317D02*
X17429706Y-14221793D01*
X17429706Y-14221793D02*
X17420182Y-14202746D01*
X17420182Y-14202746D02*
X17420182Y-14193222D01*
X17420182Y-14193222D02*
X17429706Y-14174174D01*
X17429706Y-14174174D02*
X17448753Y-14164650D01*
X17448753Y-14164650D02*
X17477325Y-14164650D01*
X17477325Y-14164650D02*
X17496373Y-14174174D01*
X17572563Y-14374174D02*
X17582087Y-14364650D01*
X17582087Y-14364650D02*
X17601134Y-14336079D01*
X17601134Y-14336079D02*
X17610658Y-14317031D01*
X17610658Y-14317031D02*
X17620182Y-14288460D01*
X17620182Y-14288460D02*
X17629706Y-14240841D01*
X17629706Y-14240841D02*
X17629706Y-14202746D01*
X17629706Y-14202746D02*
X17620182Y-14155127D01*
X17620182Y-14155127D02*
X17610658Y-14126555D01*
X17610658Y-14126555D02*
X17601134Y-14107508D01*
X17601134Y-14107508D02*
X17582087Y-14078936D01*
X17582087Y-14078936D02*
X17572563Y-14069412D01*
D12*
X12747500Y-14420500D02*
X12747500Y-14520500D01*
X12697500Y-14470500D02*
X12797500Y-14470500D01*
D11*
X13163039Y-14561984D02*
X13048753Y-14561984D01*
X13105896Y-14561984D02*
X13105896Y-14361984D01*
X13105896Y-14361984D02*
X13086848Y-14390555D01*
X13086848Y-14390555D02*
X13067801Y-14409603D01*
X13067801Y-14409603D02*
X13048753Y-14419127D01*
X13248753Y-14542936D02*
X13258277Y-14552460D01*
X13258277Y-14552460D02*
X13248753Y-14561984D01*
X13248753Y-14561984D02*
X13239229Y-14552460D01*
X13239229Y-14552460D02*
X13248753Y-14542936D01*
X13248753Y-14542936D02*
X13248753Y-14561984D01*
X13382086Y-14361984D02*
X13401134Y-14361984D01*
X13401134Y-14361984D02*
X13420182Y-14371508D01*
X13420182Y-14371508D02*
X13429705Y-14381031D01*
X13429705Y-14381031D02*
X13439229Y-14400079D01*
X13439229Y-14400079D02*
X13448753Y-14438174D01*
X13448753Y-14438174D02*
X13448753Y-14485793D01*
X13448753Y-14485793D02*
X13439229Y-14523888D01*
X13439229Y-14523888D02*
X13429705Y-14542936D01*
X13429705Y-14542936D02*
X13420182Y-14552460D01*
X13420182Y-14552460D02*
X13401134Y-14561984D01*
X13401134Y-14561984D02*
X13382086Y-14561984D01*
X13382086Y-14561984D02*
X13363039Y-14552460D01*
X13363039Y-14552460D02*
X13353515Y-14542936D01*
X13353515Y-14542936D02*
X13343991Y-14523888D01*
X13343991Y-14523888D02*
X13334467Y-14485793D01*
X13334467Y-14485793D02*
X13334467Y-14438174D01*
X13334467Y-14438174D02*
X13343991Y-14400079D01*
X13343991Y-14400079D02*
X13353515Y-14381031D01*
X13353515Y-14381031D02*
X13363039Y-14371508D01*
X13363039Y-14371508D02*
X13382086Y-14361984D01*
X13572562Y-14361984D02*
X13591610Y-14361984D01*
X13591610Y-14361984D02*
X13610658Y-14371508D01*
X13610658Y-14371508D02*
X13620182Y-14381031D01*
X13620182Y-14381031D02*
X13629705Y-14400079D01*
X13629705Y-14400079D02*
X13639229Y-14438174D01*
X13639229Y-14438174D02*
X13639229Y-14485793D01*
X13639229Y-14485793D02*
X13629705Y-14523888D01*
X13629705Y-14523888D02*
X13620182Y-14542936D01*
X13620182Y-14542936D02*
X13610658Y-14552460D01*
X13610658Y-14552460D02*
X13591610Y-14561984D01*
X13591610Y-14561984D02*
X13572562Y-14561984D01*
X13572562Y-14561984D02*
X13553515Y-14552460D01*
X13553515Y-14552460D02*
X13543991Y-14542936D01*
X13543991Y-14542936D02*
X13534467Y-14523888D01*
X13534467Y-14523888D02*
X13524943Y-14485793D01*
X13524943Y-14485793D02*
X13524943Y-14438174D01*
X13524943Y-14438174D02*
X13534467Y-14400079D01*
X13534467Y-14400079D02*
X13543991Y-14381031D01*
X13543991Y-14381031D02*
X13553515Y-14371508D01*
X13553515Y-14371508D02*
X13572562Y-14361984D01*
X13763039Y-14361984D02*
X13782086Y-14361984D01*
X13782086Y-14361984D02*
X13801134Y-14371508D01*
X13801134Y-14371508D02*
X13810658Y-14381031D01*
X13810658Y-14381031D02*
X13820182Y-14400079D01*
X13820182Y-14400079D02*
X13829705Y-14438174D01*
X13829705Y-14438174D02*
X13829705Y-14485793D01*
X13829705Y-14485793D02*
X13820182Y-14523888D01*
X13820182Y-14523888D02*
X13810658Y-14542936D01*
X13810658Y-14542936D02*
X13801134Y-14552460D01*
X13801134Y-14552460D02*
X13782086Y-14561984D01*
X13782086Y-14561984D02*
X13763039Y-14561984D01*
X13763039Y-14561984D02*
X13743991Y-14552460D01*
X13743991Y-14552460D02*
X13734467Y-14542936D01*
X13734467Y-14542936D02*
X13724943Y-14523888D01*
X13724943Y-14523888D02*
X13715420Y-14485793D01*
X13715420Y-14485793D02*
X13715420Y-14438174D01*
X13715420Y-14438174D02*
X13724943Y-14400079D01*
X13724943Y-14400079D02*
X13734467Y-14381031D01*
X13734467Y-14381031D02*
X13743991Y-14371508D01*
X13743991Y-14371508D02*
X13763039Y-14361984D01*
X13915420Y-14561984D02*
X13915420Y-14428650D01*
X13915420Y-14447698D02*
X13924943Y-14438174D01*
X13924943Y-14438174D02*
X13943991Y-14428650D01*
X13943991Y-14428650D02*
X13972563Y-14428650D01*
X13972563Y-14428650D02*
X13991610Y-14438174D01*
X13991610Y-14438174D02*
X14001134Y-14457222D01*
X14001134Y-14457222D02*
X14001134Y-14561984D01*
X14001134Y-14457222D02*
X14010658Y-14438174D01*
X14010658Y-14438174D02*
X14029705Y-14428650D01*
X14029705Y-14428650D02*
X14058277Y-14428650D01*
X14058277Y-14428650D02*
X14077324Y-14438174D01*
X14077324Y-14438174D02*
X14086848Y-14457222D01*
X14086848Y-14457222D02*
X14086848Y-14561984D01*
X14182086Y-14561984D02*
X14182086Y-14428650D01*
X14182086Y-14447698D02*
X14191610Y-14438174D01*
X14191610Y-14438174D02*
X14210658Y-14428650D01*
X14210658Y-14428650D02*
X14239229Y-14428650D01*
X14239229Y-14428650D02*
X14258277Y-14438174D01*
X14258277Y-14438174D02*
X14267801Y-14457222D01*
X14267801Y-14457222D02*
X14267801Y-14561984D01*
X14267801Y-14457222D02*
X14277324Y-14438174D01*
X14277324Y-14438174D02*
X14296372Y-14428650D01*
X14296372Y-14428650D02*
X14324943Y-14428650D01*
X14324943Y-14428650D02*
X14343991Y-14438174D01*
X14343991Y-14438174D02*
X14353515Y-14457222D01*
X14353515Y-14457222D02*
X14353515Y-14561984D01*
X14743991Y-14352460D02*
X14572563Y-14609603D01*
X15001134Y-14361984D02*
X15020182Y-14361984D01*
X15020182Y-14361984D02*
X15039229Y-14371508D01*
X15039229Y-14371508D02*
X15048753Y-14381031D01*
X15048753Y-14381031D02*
X15058277Y-14400079D01*
X15058277Y-14400079D02*
X15067801Y-14438174D01*
X15067801Y-14438174D02*
X15067801Y-14485793D01*
X15067801Y-14485793D02*
X15058277Y-14523888D01*
X15058277Y-14523888D02*
X15048753Y-14542936D01*
X15048753Y-14542936D02*
X15039229Y-14552460D01*
X15039229Y-14552460D02*
X15020182Y-14561984D01*
X15020182Y-14561984D02*
X15001134Y-14561984D01*
X15001134Y-14561984D02*
X14982086Y-14552460D01*
X14982086Y-14552460D02*
X14972563Y-14542936D01*
X14972563Y-14542936D02*
X14963039Y-14523888D01*
X14963039Y-14523888D02*
X14953515Y-14485793D01*
X14953515Y-14485793D02*
X14953515Y-14438174D01*
X14953515Y-14438174D02*
X14963039Y-14400079D01*
X14963039Y-14400079D02*
X14972563Y-14381031D01*
X14972563Y-14381031D02*
X14982086Y-14371508D01*
X14982086Y-14371508D02*
X15001134Y-14361984D01*
X15153515Y-14542936D02*
X15163039Y-14552460D01*
X15163039Y-14552460D02*
X15153515Y-14561984D01*
X15153515Y-14561984D02*
X15143991Y-14552460D01*
X15143991Y-14552460D02*
X15153515Y-14542936D01*
X15153515Y-14542936D02*
X15153515Y-14561984D01*
X15286848Y-14361984D02*
X15305896Y-14361984D01*
X15305896Y-14361984D02*
X15324944Y-14371508D01*
X15324944Y-14371508D02*
X15334467Y-14381031D01*
X15334467Y-14381031D02*
X15343991Y-14400079D01*
X15343991Y-14400079D02*
X15353515Y-14438174D01*
X15353515Y-14438174D02*
X15353515Y-14485793D01*
X15353515Y-14485793D02*
X15343991Y-14523888D01*
X15343991Y-14523888D02*
X15334467Y-14542936D01*
X15334467Y-14542936D02*
X15324944Y-14552460D01*
X15324944Y-14552460D02*
X15305896Y-14561984D01*
X15305896Y-14561984D02*
X15286848Y-14561984D01*
X15286848Y-14561984D02*
X15267801Y-14552460D01*
X15267801Y-14552460D02*
X15258277Y-14542936D01*
X15258277Y-14542936D02*
X15248753Y-14523888D01*
X15248753Y-14523888D02*
X15239229Y-14485793D01*
X15239229Y-14485793D02*
X15239229Y-14438174D01*
X15239229Y-14438174D02*
X15248753Y-14400079D01*
X15248753Y-14400079D02*
X15258277Y-14381031D01*
X15258277Y-14381031D02*
X15267801Y-14371508D01*
X15267801Y-14371508D02*
X15286848Y-14361984D01*
X15420182Y-14361984D02*
X15543991Y-14361984D01*
X15543991Y-14361984D02*
X15477325Y-14438174D01*
X15477325Y-14438174D02*
X15505896Y-14438174D01*
X15505896Y-14438174D02*
X15524944Y-14447698D01*
X15524944Y-14447698D02*
X15534467Y-14457222D01*
X15534467Y-14457222D02*
X15543991Y-14476269D01*
X15543991Y-14476269D02*
X15543991Y-14523888D01*
X15543991Y-14523888D02*
X15534467Y-14542936D01*
X15534467Y-14542936D02*
X15524944Y-14552460D01*
X15524944Y-14552460D02*
X15505896Y-14561984D01*
X15505896Y-14561984D02*
X15448753Y-14561984D01*
X15448753Y-14561984D02*
X15429706Y-14552460D01*
X15429706Y-14552460D02*
X15420182Y-14542936D01*
X15639229Y-14561984D02*
X15677325Y-14561984D01*
X15677325Y-14561984D02*
X15696372Y-14552460D01*
X15696372Y-14552460D02*
X15705896Y-14542936D01*
X15705896Y-14542936D02*
X15724944Y-14514365D01*
X15724944Y-14514365D02*
X15734467Y-14476269D01*
X15734467Y-14476269D02*
X15734467Y-14400079D01*
X15734467Y-14400079D02*
X15724944Y-14381031D01*
X15724944Y-14381031D02*
X15715420Y-14371508D01*
X15715420Y-14371508D02*
X15696372Y-14361984D01*
X15696372Y-14361984D02*
X15658277Y-14361984D01*
X15658277Y-14361984D02*
X15639229Y-14371508D01*
X15639229Y-14371508D02*
X15629706Y-14381031D01*
X15629706Y-14381031D02*
X15620182Y-14400079D01*
X15620182Y-14400079D02*
X15620182Y-14447698D01*
X15620182Y-14447698D02*
X15629706Y-14466746D01*
X15629706Y-14466746D02*
X15639229Y-14476269D01*
X15639229Y-14476269D02*
X15658277Y-14485793D01*
X15658277Y-14485793D02*
X15696372Y-14485793D01*
X15696372Y-14485793D02*
X15715420Y-14476269D01*
X15715420Y-14476269D02*
X15724944Y-14466746D01*
X15724944Y-14466746D02*
X15734467Y-14447698D01*
X15905896Y-14428650D02*
X15905896Y-14561984D01*
X15858277Y-14352460D02*
X15810658Y-14495317D01*
X15810658Y-14495317D02*
X15934467Y-14495317D01*
X16001134Y-14361984D02*
X16001134Y-14400079D01*
X16077325Y-14361984D02*
X16077325Y-14400079D01*
X16372563Y-14638174D02*
X16363039Y-14628650D01*
X16363039Y-14628650D02*
X16343991Y-14600079D01*
X16343991Y-14600079D02*
X16334468Y-14581031D01*
X16334468Y-14581031D02*
X16324944Y-14552460D01*
X16324944Y-14552460D02*
X16315420Y-14504841D01*
X16315420Y-14504841D02*
X16315420Y-14466746D01*
X16315420Y-14466746D02*
X16324944Y-14419127D01*
X16324944Y-14419127D02*
X16334468Y-14390555D01*
X16334468Y-14390555D02*
X16343991Y-14371508D01*
X16343991Y-14371508D02*
X16363039Y-14342936D01*
X16363039Y-14342936D02*
X16372563Y-14333412D01*
X16439229Y-14381031D02*
X16448753Y-14371508D01*
X16448753Y-14371508D02*
X16467801Y-14361984D01*
X16467801Y-14361984D02*
X16515420Y-14361984D01*
X16515420Y-14361984D02*
X16534468Y-14371508D01*
X16534468Y-14371508D02*
X16543991Y-14381031D01*
X16543991Y-14381031D02*
X16553515Y-14400079D01*
X16553515Y-14400079D02*
X16553515Y-14419127D01*
X16553515Y-14419127D02*
X16543991Y-14447698D01*
X16543991Y-14447698D02*
X16429706Y-14561984D01*
X16429706Y-14561984D02*
X16553515Y-14561984D01*
X16648753Y-14561984D02*
X16686848Y-14561984D01*
X16686848Y-14561984D02*
X16705896Y-14552460D01*
X16705896Y-14552460D02*
X16715420Y-14542936D01*
X16715420Y-14542936D02*
X16734468Y-14514365D01*
X16734468Y-14514365D02*
X16743991Y-14476269D01*
X16743991Y-14476269D02*
X16743991Y-14400079D01*
X16743991Y-14400079D02*
X16734468Y-14381031D01*
X16734468Y-14381031D02*
X16724944Y-14371508D01*
X16724944Y-14371508D02*
X16705896Y-14361984D01*
X16705896Y-14361984D02*
X16667801Y-14361984D01*
X16667801Y-14361984D02*
X16648753Y-14371508D01*
X16648753Y-14371508D02*
X16639229Y-14381031D01*
X16639229Y-14381031D02*
X16629706Y-14400079D01*
X16629706Y-14400079D02*
X16629706Y-14447698D01*
X16629706Y-14447698D02*
X16639229Y-14466746D01*
X16639229Y-14466746D02*
X16648753Y-14476269D01*
X16648753Y-14476269D02*
X16667801Y-14485793D01*
X16667801Y-14485793D02*
X16705896Y-14485793D01*
X16705896Y-14485793D02*
X16724944Y-14476269D01*
X16724944Y-14476269D02*
X16734468Y-14466746D01*
X16734468Y-14466746D02*
X16743991Y-14447698D01*
X16982087Y-14561984D02*
X16982087Y-14361984D01*
X17067801Y-14561984D02*
X17067801Y-14457222D01*
X17067801Y-14457222D02*
X17058277Y-14438174D01*
X17058277Y-14438174D02*
X17039230Y-14428650D01*
X17039230Y-14428650D02*
X17010658Y-14428650D01*
X17010658Y-14428650D02*
X16991611Y-14438174D01*
X16991611Y-14438174D02*
X16982087Y-14447698D01*
X17191611Y-14561984D02*
X17172563Y-14552460D01*
X17172563Y-14552460D02*
X17163039Y-14542936D01*
X17163039Y-14542936D02*
X17153515Y-14523888D01*
X17153515Y-14523888D02*
X17153515Y-14466746D01*
X17153515Y-14466746D02*
X17163039Y-14447698D01*
X17163039Y-14447698D02*
X17172563Y-14438174D01*
X17172563Y-14438174D02*
X17191611Y-14428650D01*
X17191611Y-14428650D02*
X17220182Y-14428650D01*
X17220182Y-14428650D02*
X17239230Y-14438174D01*
X17239230Y-14438174D02*
X17248753Y-14447698D01*
X17248753Y-14447698D02*
X17258277Y-14466746D01*
X17258277Y-14466746D02*
X17258277Y-14523888D01*
X17258277Y-14523888D02*
X17248753Y-14542936D01*
X17248753Y-14542936D02*
X17239230Y-14552460D01*
X17239230Y-14552460D02*
X17220182Y-14561984D01*
X17220182Y-14561984D02*
X17191611Y-14561984D01*
X17372563Y-14561984D02*
X17353515Y-14552460D01*
X17353515Y-14552460D02*
X17343992Y-14533412D01*
X17343992Y-14533412D02*
X17343992Y-14361984D01*
X17524944Y-14552460D02*
X17505896Y-14561984D01*
X17505896Y-14561984D02*
X17467801Y-14561984D01*
X17467801Y-14561984D02*
X17448753Y-14552460D01*
X17448753Y-14552460D02*
X17439230Y-14533412D01*
X17439230Y-14533412D02*
X17439230Y-14457222D01*
X17439230Y-14457222D02*
X17448753Y-14438174D01*
X17448753Y-14438174D02*
X17467801Y-14428650D01*
X17467801Y-14428650D02*
X17505896Y-14428650D01*
X17505896Y-14428650D02*
X17524944Y-14438174D01*
X17524944Y-14438174D02*
X17534468Y-14457222D01*
X17534468Y-14457222D02*
X17534468Y-14476269D01*
X17534468Y-14476269D02*
X17439230Y-14495317D01*
X17610658Y-14552460D02*
X17629706Y-14561984D01*
X17629706Y-14561984D02*
X17667801Y-14561984D01*
X17667801Y-14561984D02*
X17686849Y-14552460D01*
X17686849Y-14552460D02*
X17696373Y-14533412D01*
X17696373Y-14533412D02*
X17696373Y-14523888D01*
X17696373Y-14523888D02*
X17686849Y-14504841D01*
X17686849Y-14504841D02*
X17667801Y-14495317D01*
X17667801Y-14495317D02*
X17639230Y-14495317D01*
X17639230Y-14495317D02*
X17620182Y-14485793D01*
X17620182Y-14485793D02*
X17610658Y-14466746D01*
X17610658Y-14466746D02*
X17610658Y-14457222D01*
X17610658Y-14457222D02*
X17620182Y-14438174D01*
X17620182Y-14438174D02*
X17639230Y-14428650D01*
X17639230Y-14428650D02*
X17667801Y-14428650D01*
X17667801Y-14428650D02*
X17686849Y-14438174D01*
X17763039Y-14638174D02*
X17772563Y-14628650D01*
X17772563Y-14628650D02*
X17791611Y-14600079D01*
X17791611Y-14600079D02*
X17801134Y-14581031D01*
X17801134Y-14581031D02*
X17810658Y-14552460D01*
X17810658Y-14552460D02*
X17820182Y-14504841D01*
X17820182Y-14504841D02*
X17820182Y-14466746D01*
X17820182Y-14466746D02*
X17810658Y-14419127D01*
X17810658Y-14419127D02*
X17801134Y-14390555D01*
X17801134Y-14390555D02*
X17791611Y-14371508D01*
X17791611Y-14371508D02*
X17772563Y-14342936D01*
X17772563Y-14342936D02*
X17763039Y-14333412D01*
M02*
